<svg xmlns="http://www.w3.org/2000/svg" xmlns:xlink="http://www.w3.org/1999/xlink" x="0" y="0" width="662" height="217.39999389648438" style="
        width:662px;
        height:217.39999389648438px;
        background: transparent;
        fill: none;
">
        
        
        <svg xmlns="http://www.w3.org/2000/svg" class="role-diagram-draw-area"><g class="shapes-region" style="stroke: black; fill: none;"><g class="arrow-line"><path class="connection real" stroke-dasharray="" d="  M508.08,48.14 L595.51,48.14" style="stroke: rgb(0, 0, 0); stroke-width: 1px; fill: none; fill-opacity: 1;"/></g><g class="composite-shape"><path class="real" d=" M26.17,56.08 C26.17,45.94 34.38,37.73 44.52,37.73 L433.45,37.73 C443.59,37.73 451.8,45.94 451.8,56.08 L451.8,111.13 C451.8,121.27 443.59,129.49 433.45,129.49 L44.52,129.49 C34.38,129.49 26.17,121.27 26.17,111.13 Z" style="stroke-width: 1px; stroke: rgb(0, 0, 0); fill: none; fill-opacity: 1;"/></g><g class="arrow-line"><path class="connection real" stroke-dasharray="" d="  M132.01,109.58" style="stroke: rgb(0, 0, 0); stroke-width: 1px; fill: none; fill-opacity: 1;"/></g><g class="composite-shape"><path class="real" d=" M113.64,93.85 C113.76,90.85 116.3,88.42 119.3,88.42 C122.3,88.42 124.64,90.85 124.52,93.85 C124.4,96.85 121.86,99.29 118.86,99.29 C115.86,99.29 113.52,96.85 113.64,93.85 Z" style="stroke-width: 1px; stroke: rgb(0, 0, 0); fill: rgb(0, 0, 0); fill-opacity: 1;"/></g><g class="arrow-line"><path class="connection real" stroke-dasharray="" d="  M60.11,94.16 L406.89,94.02" style="stroke: rgb(0, 0, 0); stroke-width: 1px; fill: none; fill-opacity: 1;"/></g><g class="composite-shape"><path class="real" d=" M325.33,95.17 C325.45,92.17 327.98,89.74 330.98,89.74 C333.99,89.74 336.32,92.17 336.2,95.17 C336.08,98.18 333.55,100.61 330.55,100.61 C327.55,100.61 325.21,98.18 325.33,95.17 Z" style="stroke-width: 1px; stroke: rgb(0, 0, 0); fill: rgb(0, 0, 0); fill-opacity: 1;"/></g><g class="composite-shape"><path class="real" d=" M272.19,94.51 C272.31,91.51 274.84,89.08 277.84,89.08 C280.84,89.08 283.18,91.51 283.06,94.51 C282.94,97.52 280.41,99.95 277.41,99.95 C274.41,99.95 272.07,97.52 272.19,94.51 Z" style="stroke-width: 1px; stroke: rgb(0, 0, 0); fill: rgb(0, 0, 0); fill-opacity: 1;"/></g><g class="arrow-line"><path class="connection real" stroke-dasharray="" d="  M450.86,109.58" style="stroke: rgb(0, 0, 0); stroke-width: 1px; fill: none; fill-opacity: 1;"/></g><g class="composite-shape"><path class="real" d=" M378.47,94.51 C378.59,91.51 381.12,89.08 384.13,89.08 C387.13,89.08 389.46,91.51 389.34,94.51 C389.22,97.52 386.69,99.95 383.69,99.95 C380.69,99.95 378.35,97.52 378.47,94.51 Z" style="stroke-width: 1px; stroke: rgb(0, 0, 0); fill: rgb(0, 0, 0); fill-opacity: 1;"/></g><g class="arrow-line"><path class="connection real" stroke-dasharray="" d="  M508.08,85.66 L595.51,85.66" style="stroke: rgb(0, 0, 0); stroke-width: 1px; fill: none; fill-opacity: 1;"/></g><g class="composite-shape"><path class="real" d=" M476.98,20.08 L630,20.08 L630,104.41 L476.98,104.41 Z" style="stroke-width: 1px; stroke: rgb(0, 0, 0); fill: none; fill-opacity: 1;"/></g><g class="arrow-line"><path class="connection real" stroke-dasharray="" d="  M386.15,95.03 L476.98,20.08" style="stroke: rgb(0, 0, 0); stroke-width: 1px; fill: none; fill-opacity: 1;"/></g><g class="arrow-line"><path class="connection real" stroke-dasharray="" d="  M330.77,95.17 C326.1,54.31 286.49,54.73 277.99,92.75" style="stroke: rgb(165, 30, 55); stroke-opacity: 1; stroke-width: 1px; fill: none; fill-opacity: 1;"/><g stroke="rgb(165,30,55)" stroke-opacity="1" transform="matrix(0.18909544298989084,-0.9819587126964437,0.9819587126964437,0.18909544298989084,277.6248543068766,94.51323989221564)" style="stroke: rgb(165, 30, 55); stroke-width: 1px;"><path d=" M15.3,-4.61 Q6.94,-0.63 0,0 Q6.94,0.63 15.3,4.61"/></g></g><g class="arrow-line"><path class="connection real" stroke-dasharray="" d="  M330.77,95.17 C337.57,54.83 374.64,53.72 383.52,92.7" style="stroke: rgb(165, 30, 55); stroke-opacity: 1; stroke-width: 1px; fill: none; fill-opacity: 1;"/><g stroke="rgb(165,30,55)" stroke-opacity="1" transform="matrix(-0.19543266877155674,-0.9807171212825985,0.9807171212825985,-0.19543266877155674,383.90920662000417,94.51323989221561)" style="stroke: rgb(165, 30, 55); stroke-width: 1px;"><path d=" M15.3,-4.61 Q6.94,-0.63 0,0 Q6.94,0.63 15.3,4.61"/></g></g><g class="arrow-line"><path class="connection real" stroke-dasharray="" d="  M573.73,48.14 Q576.23,50.64 573.73,53.14 Q571.23,55.64 573.73,58.14 Q576.23,60.64 573.73,63.14 Q571.23,65.64 573.73,68.14 Q576.23,70.64 573.73,73.14 L573.73,75.66 L573.73,83.66" style="stroke: rgb(175, 110, 150); stroke-opacity: 1; stroke-width: 1px; fill: rgb(175, 110, 150); fill-opacity: 1;"/><g stroke="rgb(175,110,150)" stroke-opacity="1" transform="matrix(-1.8369701987210297e-16,-1,1,-1.8369701987210297e-16,573.7276727931659,85.65584426250462)" style="stroke: rgb(175, 110, 150); stroke-width: 1px;"><path d=" M9.84,-2.96 Q4.46,-0.4 0,0 Q4.46,0.41 9.84,2.96"/></g></g><g class="grouped-shape"><g class="composite-shape"><path class="real" d=" M216.79,93.55 C216.91,90.55 219.44,88.12 222.45,88.12 C225.45,88.12 227.78,90.55 227.66,93.55 C227.54,96.55 225.01,98.99 222.01,98.99 C219.01,98.99 216.67,96.55 216.79,93.55 Z" style="stroke-width: 1px; stroke: rgb(50, 110, 30); stroke-opacity: 1; fill: rgb(50, 110, 30); fill-opacity: 1;"/></g><g class="composite-shape"><path class="real" d=" M214.2,93.55 C214.2,89.12 217.8,85.53 222.23,85.53 C226.66,85.53 230.25,89.12 230.25,93.55 C230.25,97.98 226.66,101.58 222.23,101.58 C217.8,101.58 214.2,97.98 214.2,93.55 M202.17,93.55 C202.17,82.47 211.15,73.49 222.23,73.49 C233.31,73.49 242.29,82.47 242.29,93.55 C242.29,104.63 233.31,113.62 222.23,113.62 C211.15,113.62 202.17,104.63 202.17,93.55" style="stroke-width: 1px; stroke: rgb(50, 110, 30); stroke-opacity: 1; fill: none; fill-opacity: 1; stroke-dasharray: 1.125px, 3.35px; fill-rule: evenodd;"/></g><g class="composite-shape"><path class="real" d=" M208.16,93.55 C208.16,85.78 214.46,79.48 222.23,79.48 C230,79.48 236.3,85.78 236.3,93.55 C236.3,101.32 230,107.62 222.23,107.62 C214.46,107.62 208.16,101.32 208.16,93.55 M187.05,93.55 C187.05,74.12 202.8,58.38 222.23,58.38 C241.66,58.38 257.41,74.12 257.41,93.55 C257.41,112.98 241.66,128.73 222.23,128.73 C202.8,128.73 187.05,112.98 187.05,93.55" style="stroke-width: 1px; stroke: rgb(50, 110, 30); stroke-opacity: 1; fill: none; fill-opacity: 1; stroke-dasharray: 1.125px, 3.35px; fill-rule: evenodd;"/></g></g><g class="grouped-shape"><g class="composite-shape"><path class="real" d=" M159.3,93.55 C159.42,90.55 161.95,88.12 164.96,88.12 C167.96,88.12 170.29,90.55 170.17,93.55 C170.05,96.55 167.52,98.99 164.52,98.99 C161.52,98.99 159.18,96.55 159.3,93.55 Z" style="stroke-width: 1px; stroke: rgb(50, 110, 30); stroke-opacity: 1; fill: rgb(50, 110, 30); fill-opacity: 1;"/></g><g class="composite-shape"><path class="real" d=" M156.71,93.55 C156.71,89.12 160.31,85.53 164.74,85.53 C169.17,85.53 172.76,89.12 172.76,93.55 C172.76,97.98 169.17,101.58 164.74,101.58 C160.31,101.58 156.71,97.98 156.71,93.55 M144.68,93.55 C144.68,82.47 153.66,73.49 164.74,73.49 C175.82,73.49 184.8,82.47 184.8,93.55 C184.8,104.63 175.82,113.62 164.74,113.62 C153.66,113.62 144.68,104.63 144.68,93.55" style="stroke-width: 1px; stroke: rgb(50, 110, 30); stroke-opacity: 1; fill: none; fill-opacity: 1; stroke-dasharray: 1.125px, 3.35px; fill-rule: evenodd;"/></g><g class="composite-shape"><path class="real" d=" M150.67,93.55 C150.67,85.78 156.97,79.48 164.74,79.48 C172.51,79.48 178.81,85.78 178.81,93.55 C178.81,101.32 172.51,107.62 164.74,107.62 C156.97,107.62 150.67,101.32 150.67,93.55 M129.56,93.55 C129.56,74.12 145.31,58.38 164.74,58.38 C184.17,58.38 199.92,74.12 199.92,93.55 C199.92,112.98 184.17,128.73 164.74,128.73 C145.31,128.73 129.56,112.98 129.56,93.55" style="stroke-width: 1px; stroke: rgb(50, 110, 30); stroke-opacity: 1; fill: none; fill-opacity: 1; stroke-dasharray: 1.125px, 3.35px; fill-rule: evenodd;"/></g></g><g class="arrow-line"><path class="connection real" stroke-dasharray="1.125 3.35" d="  M60.11,94.16 L38.59,94.02" style="stroke: rgb(0, 0, 0); stroke-width: 1px; fill: none; fill-opacity: 1;"/></g><g class="arrow-line"><path class="connection real" stroke-dasharray="1.125 3.35" d="  M406.89,94.02 L442.82,94.02" style="stroke: rgb(0, 0, 0); stroke-width: 1px; fill: none; fill-opacity: 1;"/></g><g class="arrow-line"><path class="connection real" stroke-dasharray="" d="  M508.08,29.38 L595.51,29.38" style="stroke: rgb(0, 0, 0); stroke-width: 1px; fill: none; fill-opacity: 1;"/></g><g class="arrow-line"><path class="connection real" stroke-dasharray="" d="  M536.21,31.38 L536.21,83.66" style="stroke: rgb(65, 90, 140); stroke-opacity: 1; stroke-width: 1px; fill: none; fill-opacity: 1;"/><g stroke="rgb(65,90,140)" stroke-opacity="1" transform="matrix(-1.8369701987210297e-16,-1,1,-1.8369701987210297e-16,536.21278798861,85.65584426250462)" style="stroke: rgb(65, 90, 140); stroke-width: 1px;"><path d=" M10.93,-3.29 Q4.96,-0.45 0,0 Q4.96,0.45 10.93,3.29"/></g><g stroke="rgb(65,90,140)" stroke-opacity="1" transform="matrix(6.123233995736766e-17,1,-1,6.123233995736766e-17,536.21278798861,29.383517055670552)" style="stroke: rgb(65, 90, 140); stroke-width: 1px;"><path d=" M10.93,-3.29 Q4.96,-0.45 0,0 Q4.96,0.45 10.93,3.29"/></g></g><g class="arrow-line"><path class="connection real" stroke-dasharray="" d="  M554.97,31.38 L554.97,46.14" style="stroke: rgb(50, 110, 30); stroke-opacity: 1; stroke-width: 1px; fill: none; fill-opacity: 1;"/><g stroke="rgb(50,110,30)" stroke-opacity="1" transform="matrix(-1.8369701987210297e-16,-1,1,-1.8369701987210297e-16,554.970230390888,48.14095945794861)" style="stroke: rgb(50, 110, 30); stroke-width: 1px;"><path d=" M7.65,-2.3 Q3.47,-0.31 0,0 Q3.47,0.32 7.65,2.3"/></g><g stroke="rgb(50,110,30)" stroke-opacity="1" transform="matrix(6.123233995736766e-17,1,-1,6.123233995736766e-17,554.970230390888,29.38351705567061)" style="stroke: rgb(50, 110, 30); stroke-width: 1px;"><path d=" M7.65,-2.3 Q3.47,-0.31 0,0 Q3.47,0.32 7.65,2.3"/></g></g><g class="arrow-line"><path class="connection real" stroke-dasharray="" d="  M383.91,94.51 L476.98,104.41" style="stroke: rgb(0, 0, 0); stroke-width: 1px; fill: none; fill-opacity: 1;"/></g><g class="arrow-line"><path class="connection real" stroke-dasharray="" d="  M75,110.38 L120.71,110.41" style="stroke: rgb(0, 0, 0); stroke-width: 1px; fill: none; fill-opacity: 1;"/><g stroke="#000" transform="matrix(-0.9999997563060741,-0.0006981316440874133,0.0006981316440874133,-0.9999997563060741,120.71428571428572,110.40952264694944)" style="stroke: rgb(0, 0, 0); stroke-width: 1px;"><path d=" M0,4.47 L0,-4.47"/></g><g stroke="#000" transform="matrix(-0.9999997563060741,-0.0006981316440874133,0.0006981316440874133,-0.9999997563060741,74.99999999999999,110.3777804904514)" style="stroke: rgb(0, 0, 0); stroke-width: 1px;"><path d=" M0,4.47 L0,-4.47"/></g></g><g class="composite-shape"><path class="real" d=" M69.09,94.02 C69.21,91.02 71.74,88.58 74.74,88.58 C77.74,88.58 80.08,91.02 79.96,94.02 C79.84,97.02 77.31,99.46 74.31,99.46 C71.31,99.46 68.97,97.02 69.09,94.02 Z" style="stroke-width: 1px; stroke: rgb(0, 0, 0); fill: rgb(0, 0, 0); fill-opacity: 1;"/></g><g/></g><g/><g/><g/></svg>
        <svg xmlns="http://www.w3.org/2000/svg" xmlns:xlink="http://www.w3.org/1999/xlink" width="660" height="215.39999389648438" style="width:660px;height:215.39999389648438px;font-family:Asana-Math, Asana;background:transparent;"><g><g><g><g><g><g><g><g><g><g transform="matrix(1,0,0,1,609.0333251953125,55.28334045410156)"><path transform="matrix(0.017,0,0,-0.017,0,0)" d="M31 148C26 97 20 62 9 16C47 -2 81 -11 116 -11C165 -11 211 7 262 47C313 87 334 124 334 174C334 228 302 257 228 271L185 279C125 290 106 307 106 348C106 401 151 442 208 442C249 442 287 424 303 397L303 342L326 342C330 377 334 404 345 455C306 474 278 482 245 482C193 482 132 452 84 404C58 377 47 352 47 316C47 260 78 228 144 215L207 203C251 195 267 177 267 138C267 73 221 29 150 29C115 29 84 40 56 64L56 148Z" stroke="rgb(0,0,0)" stroke-opacity="1" stroke-width="0" fill="rgb(0,0,0)" fill-opacity="1"></path></g></g></g></g><svg x="603.0833740234375" overflow="visible" y="39.78334045410156" height="20.399993896484375" width="4.25"><rect style="fill:rgb(0,0,0);fill-opacity:1;stroke-width:1px;stroke:none;stroke-opacity:1;" x="1.63" y="1.89" width="1" height="16.62"></rect></svg><svg x="615.63330078125" overflow="visible" y="39.78334045410156" height="20.399993896484375" width="9.350006103515625"><polyline points="1.87,1.89 7.46,10.20 1.87,18.51" style="fill:none;fill-opacity:1;stroke-width:1px;stroke:rgb(0,0,0);stroke-opacity:1;"></polyline></svg></g></g></g></g></g></g><g><g><g><g><g><g><g><g><g><g transform="matrix(1,0,0,1,608.9833984375,92.80000305175781)"><path transform="matrix(0.017,0,0,-0.017,0,0)" d="M275 482C208 482 55 419 55 259C55 182 100 136 177 136C185 136 196 136 207 137L166 99C150 84 139 66 139 52C139 42 146 31 160 19C91 -4 -37 -48 -37 -159C-37 -230 33 -276 142 -276C271 -276 384 -204 384 -121C384 -85 363 -49 320 -14L260 35C226 62 213 81 213 100C213 114 228 128 240 146C338 170 409 253 409 342C409 357 406 376 405 380C422 378 430 378 439 378C456 378 466 379 489 382L498 427L495 433C467 426 447 424 393 424C393 425 369 482 275 482ZM176 1L253 -58C299 -94 318 -121 318 -154C318 -206 249 -248 166 -248C84 -248 27 -206 27 -145C27 -43 137 -11 176 1ZM250 448C308 448 337 412 337 341C337 238 289 168 219 168C158 168 126 209 126 288C126 383 177 448 250 448Z" stroke="rgb(0,0,0)" stroke-opacity="1" stroke-width="0" fill="rgb(0,0,0)" fill-opacity="1"></path></g></g></g></g><svg x="603.0333251953125" overflow="visible" y="77.30000305175781" height="20.399993896484375" width="4.25"><rect style="fill:rgb(0,0,0);fill-opacity:1;stroke-width:1px;stroke:none;stroke-opacity:1;" x="1.63" y="1.89" width="1" height="16.62"></rect></svg><svg x="617.4666748046875" overflow="visible" y="77.30000305175781" height="20.399993896484375" width="9.350006103515625"><polyline points="1.87,1.89 7.46,10.20 1.87,18.51" style="fill:none;fill-opacity:1;stroke-width:1px;stroke:rgb(0,0,0);stroke-opacity:1;"></polyline></svg></g></g></g></g></g></g><g><g><g><g><g><g><g transform="matrix(1,0,0,1,581.88330078125,72.16667175292969)"><path transform="matrix(0.017,0,0,-0.017,0,0)" d="M154 473C89 473 51 426 18 377C18 371 27 368 30 365L30 366C54 394 74 412 111 412C206 412 215 290 214 220C212 136 203 53 186 -29C140 -86 92 -181 65 -249C69 -257 74 -265 77 -273C98 -268 119 -260 139 -251C165 -183 189 -106 203 -36C387 199 540 317 547 438C550 493 485 453 459 446L459 435C502 284 287 130 220 19L220 23C302 358 258 473 154 473Z" stroke="rgb(175,110,150)" stroke-opacity="1" stroke-width="0" fill="rgb(175,110,150)" fill-opacity="1"></path></g></g></g></g></g></g></g><g><g><g><g transform="matrix(1,0,0,1,257.3333740234375,119.16668701171875)"><path transform="matrix(0.015,0,0,-0.015,0,0)" d="M32 0C67 1 118 3 145 3C171 3 223 1 257 0L257 31C190 31 179 31 179 76L179 260C179 364 250 420 314 420C377 420 388 366 388 309L388 76C388 31 377 31 310 31L310 0C345 1 396 3 423 3C449 3 501 1 535 0L535 31C483 31 458 31 457 61L457 252C457 338 457 369 426 405C412 422 379 442 321 442C248 442 201 399 173 337L173 442L32 431L32 400C102 400 110 393 110 344L110 76C110 31 99 31 32 31ZM583 220C583 86 688 -11 803 -11C925 -11 970 100 970 119C970 129 962 131 957 131C948 131 946 125 944 117C909 14 819 14 809 14C759 14 719 44 696 81C666 129 666 195 666 231L945 231C967 231 970 231 970 252C970 351 916 448 791 448C675 448 583 345 583 220ZM667 252C673 401 757 426 791 426C894 426 904 291 904 252ZM1011 0C1037 2 1068 3 1094 3C1123 3 1165 1 1189 0L1189 31C1167 34 1160 47 1160 62C1160 84 1189 117 1250 189L1326 89C1334 78 1347 62 1347 56C1347 47 1338 32 1311 31L1311 0C1341 1 1397 3 1419 3C1446 3 1485 2 1515 0L1515 31C1461 31 1443 33 1420 62L1286 235C1316 273 1354 322 1378 348C1409 384 1450 399 1497 400L1497 431C1471 429 1441 428 1415 428C1385 428 1332 430 1319 431L1319 400C1340 398 1348 385 1348 369C1348 353 1338 340 1333 334L1271 256L1193 357C1184 367 1184 369 1184 375C1184 390 1199 399 1219 400L1219 431C1193 430 1127 428 1111 428C1090 428 1043 429 1016 431L1016 400C1086 400 1087 399 1134 339L1233 210L1139 91C1091 33 1032 31 1011 31ZM1545 400L1630 400L1630 124C1630 1 1723 -11 1759 -11C1830 -11 1858 60 1858 124L1858 181L1833 181L1833 126C1833 52 1803 14 1766 14C1699 14 1699 105 1699 122L1699 400L1842 400L1842 431L1699 431L1699 615L1674 615C1673 533 1643 426 1545 422ZM2279 0C2314 1 2365 3 2392 3C2418 3 2470 1 2504 0L2504 31C2437 31 2426 31 2426 76L2426 260C2426 364 2497 420 2561 420C2624 420 2635 366 2635 309L2635 76C2635 31 2624 31 2557 31L2557 0C2592 1 2643 3 2670 3C2696 3 2748 1 2782 0L2782 31C2730 31 2705 31 2704 61L2704 252C2704 338 2704 369 2673 405C2659 422 2626 442 2568 442C2495 442 2448 399 2420 337L2420 442L2279 431L2279 400C2349 400 2357 393 2357 344L2357 76C2357 31 2346 31 2279 31ZM2830 220C2830 86 2935 -11 3050 -11C3172 -11 3217 100 3217 119C3217 129 3209 131 3204 131C3195 131 3193 125 3191 117C3156 14 3066 14 3056 14C3006 14 2966 44 2943 81C2913 129 2913 195 2913 231L3192 231C3214 231 3217 231 3217 252C3217 351 3163 448 3038 448C2922 448 2830 345 2830 220ZM2914 252C2920 401 3004 426 3038 426C3141 426 3151 291 3151 252ZM3321 616C3321 589 3343 563 3374 563C3402 563 3427 584 3427 616C3427 648 3402 669 3374 669C3343 669 3321 642 3321 616ZM3279 0C3311 1 3365 3 3389 3C3424 3 3459 1 3493 0L3493 31C3427 31 3423 36 3423 75L3423 442L3283 431L3283 400C3348 400 3357 394 3357 345L3357 76C3357 31 3346 31 3279 31ZM3551 -79C3551 -151 3650 -206 3772 -206C3890 -206 3994 -155 3994 -77C3994 -42 3980 9 3929 37C3876 65 3818 65 3757 65C3732 65 3689 65 3682 66C3650 70 3629 101 3629 133C3629 137 3629 160 3646 180C3685 152 3726 149 3745 149C3838 149 3907 218 3907 295C3907 332 3891 369 3866 392C3902 426 3938 431 3956 431C3958 431 3963 431 3966 430C3955 426 3950 415 3950 403C3950 386 3963 374 3979 374C3989 374 4008 381 4008 404C4008 421 3996 453 3957 453C3937 453 3893 447 3851 406C3809 439 3767 442 3745 442C3652 442 3583 373 3583 296C3583 252 3605 214 3630 193C3617 178 3599 145 3599 110C3599 79 3612 41 3643 21C3583 4 3551 -39 3551 -79ZM3603 -79C3603 -33 3641 4 3685 7L3744 7C3830 7 3942 7 3942 -79C3942 -133 3871 -183 3773 -183C3672 -183 3603 -132 3603 -79ZM3658 295C3658 322 3659 354 3674 379C3682 391 3705 419 3745 419C3832 419 3832 319 3832 296C3832 269 3831 237 3816 212C3808 200 3785 172 3745 172C3658 172 3658 272 3658 295ZM4055 0C4090 1 4141 3 4168 3C4194 3 4246 1 4280 0L4280 31C4213 31 4202 31 4202 76L4202 260C4202 364 4273 420 4337 420C4400 420 4411 366 4411 309L4411 76C4411 31 4400 31 4333 31L4333 0C4368 1 4419 3 4446 3C4472 3 4524 1 4558 0L4558 31C4506 31 4481 31 4480 61L4480 252C4480 338 4480 369 4449 405C4435 422 4402 442 4344 442C4260 442 4216 382 4200 346L4199 346L4199 694L4055 683L4055 652C4125 652 4133 645 4133 596L4133 76C4133 31 4122 31 4055 31ZM4578 652C4648 652 4656 645 4656 596L4656 0L4681 0C4682 1 4690 15 4717 62C4732 39 4774 -11 4848 -11C4967 -11 5071 87 5071 216C5071 343 4973 442 4859 442C4781 442 4738 395 4722 377L4722 694L4578 683ZM4725 114L4725 320C4725 339 4725 340 4736 356C4775 412 4830 420 4854 420C4899 420 4935 394 4959 356C4985 315 4988 258 4988 217C4988 180 4986 120 4957 75C4936 44 4898 11 4844 11C4799 11 4763 35 4739 72C4725 93 4725 96 4725 114ZM5161 214C5161 85 5265 -11 5382 -11C5503 -11 5604 87 5604 214C5604 342 5504 448 5383 448C5258 448 5161 339 5161 214ZM5244 222C5244 261 5244 315 5268 359C5295 405 5342 426 5382 426C5426 426 5469 404 5495 361C5521 318 5521 260 5521 222C5521 186 5521 132 5499 88C5477 43 5433 14 5383 14C5340 14 5296 35 5269 81C5244 125 5244 186 5244 222ZM5665 400C5743 400 5743 397 5743 308L5743 158C5743 80 5743 -11 5895 -11C5951 -11 5995 17 6024 79L6024 -11L6168 0L6168 31C6098 31 6090 38 6090 87L6090 442L5943 431L5943 400C6013 400 6021 393 6021 344L6021 166C6021 79 5973 11 5900 11C5816 11 5812 58 5812 110L5812 442L5665 431ZM6216 0C6255 1 6302 3 6330 3C6370 3 6417 3 6457 0L6457 31L6436 31C6362 31 6360 42 6360 78L6360 232C6360 331 6402 420 6478 420C6485 420 6487 420 6489 419C6486 418 6466 406 6466 380C6466 352 6487 337 6509 337C6527 337 6552 349 6552 381C6552 413 6521 442 6478 442C6405 442 6369 375 6355 332L6355 442L6216 431L6216 400C6286 400 6294 393 6294 344L6294 76C6294 31 6283 31 6216 31ZM6987 616C6987 589 7009 563 7040 563C7068 563 7093 584 7093 616C7093 648 7068 669 7040 669C7009 669 6987 642 6987 616ZM6945 0C6977 1 7031 3 7055 3C7090 3 7125 1 7159 0L7159 31C7093 31 7089 36 7089 75L7089 442L6949 431L6949 400C7014 400 7023 394 7023 345L7023 76C7023 31 7012 31 6945 31ZM7221 0C7256 1 7307 3 7334 3C7360 3 7412 1 7446 0L7446 31C7379 31 7368 31 7368 76L7368 260C7368 364 7439 420 7503 420C7566 420 7577 366 7577 309L7577 76C7577 31 7566 31 7499 31L7499 0C7534 1 7585 3 7612 3C7638 3 7690 1 7724 0L7724 31C7672 31 7647 31 7646 61L7646 252C7646 338 7646 369 7615 405C7601 422 7568 442 7510 442C7437 442 7390 399 7362 337L7362 442L7221 431L7221 400C7291 400 7299 393 7299 344L7299 76C7299 31 7288 31 7221 31ZM7735 400L7820 400L7820 124C7820 1 7913 -11 7949 -11C8020 -11 8048 60 8048 124L8048 181L8023 181L8023 126C8023 52 7993 14 7956 14C7889 14 7889 105 7889 122L7889 400L8032 400L8032 431L7889 431L7889 615L7864 615C7863 533 7833 426 7735 422ZM8132 220C8132 86 8237 -11 8352 -11C8474 -11 8519 100 8519 119C8519 129 8511 131 8506 131C8497 131 8495 125 8493 117C8458 14 8368 14 8358 14C8308 14 8268 44 8245 81C8215 129 8215 195 8215 231L8494 231C8516 231 8519 231 8519 252C8519 351 8465 448 8340 448C8224 448 8132 345 8132 220ZM8216 252C8222 401 8306 426 8340 426C8443 426 8453 291 8453 252ZM8576 0C8615 1 8662 3 8690 3C8730 3 8777 3 8817 0L8817 31L8796 31C8722 31 8720 42 8720 78L8720 232C8720 331 8762 420 8838 420C8845 420 8847 420 8849 419C8846 418 8826 406 8826 380C8826 352 8847 337 8869 337C8887 337 8912 349 8912 381C8912 413 8881 442 8838 442C8765 442 8729 375 8715 332L8715 442L8576 431L8576 400C8646 400 8654 393 8654 344L8654 76C8654 31 8643 31 8576 31ZM8981 95C8981 14 9078 -11 9141 -11C9207 -11 9253 29 9272 76C9276 36 9303 -6 9350 -6C9371 -6 9432 8 9432 89L9432 145L9407 145L9407 89C9407 31 9382 25 9371 25C9338 25 9334 70 9334 75L9334 275C9334 317 9334 356 9298 393C9259 432 9209 448 9161 448C9079 448 9010 401 9010 335C9010 305 9030 288 9056 288C9084 288 9102 308 9102 334C9102 346 9097 379 9051 380C9078 415 9127 426 9159 426C9208 426 9265 387 9265 298L9265 261C9214 258 9144 255 9081 225C9006 191 8981 139 8981 95ZM9058 96C9058 151 9100 234 9265 240L9265 140C9265 45 9193 11 9148 11C9099 11 9058 46 9058 96ZM9473 216C9473 88 9572 -11 9688 -11C9822 -11 9854 109 9854 119C9854 129 9844 129 9841 129C9832 129 9830 125 9828 119C9799 26 9734 14 9697 14C9644 14 9556 57 9556 218C9556 381 9638 423 9691 423C9700 423 9763 422 9798 386C9757 383 9751 353 9751 340C9751 314 9769 294 9797 294C9823 294 9843 311 9843 341C9843 409 9767 448 9690 448C9565 448 9473 340 9473 216ZM9902 400L9987 400L9987 124C9987 1 10080 -11 10116 -11C10187 -11 10215 60 10215 124L10215 181L10190 181L10190 126C10190 52 10160 14 10123 14C10056 14 10056 105 10056 122L10056 400L10199 400L10199 431L10056 431L10056 615L10031 615C10030 533 10000 426 9902 422ZM10346 616C10346 589 10368 563 10399 563C10427 563 10452 584 10452 616C10452 648 10427 669 10399 669C10368 669 10346 642 10346 616ZM10304 0C10336 1 10390 3 10414 3C10449 3 10484 1 10518 0L10518 31C10452 31 10448 36 10448 75L10448 442L10308 431L10308 400C10373 400 10382 394 10382 345L10382 76C10382 31 10371 31 10304 31ZM10576 214C10576 85 10680 -11 10797 -11C10918 -11 11019 87 11019 214C11019 342 10919 448 10798 448C10673 448 10576 339 10576 214ZM10659 222C10659 261 10659 315 10683 359C10710 405 10757 426 10797 426C10841 426 10884 404 10910 361C10936 318 10936 260 10936 222C10936 186 10936 132 10914 88C10892 43 10848 14 10798 14C10755 14 10711 35 10684 81C10659 125 10659 186 10659 222ZM11080 0C11115 1 11166 3 11193 3C11219 3 11271 1 11305 0L11305 31C11238 31 11227 31 11227 76L11227 260C11227 364 11298 420 11362 420C11425 420 11436 366 11436 309L11436 76C11436 31 11425 31 11358 31L11358 0C11393 1 11444 3 11471 3C11497 3 11549 1 11583 0L11583 31C11531 31 11506 31 11505 61L11505 252C11505 338 11505 369 11474 405C11460 422 11427 442 11369 442C11296 442 11249 399 11221 337L11221 442L11080 431L11080 400C11150 400 11158 393 11158 344L11158 76C11158 31 11147 31 11080 31Z" stroke="rgb(165,30,55)" stroke-opacity="1" stroke-width="0" fill="rgb(165,30,55)" fill-opacity="1"></path></g></g></g></g><g><g><g><g transform="matrix(1,0,0,1,91.7333984375,49.80000305175781)"><path transform="matrix(0.015,0,0,-0.015,0,0)" d="M35 0C71 3 142 3 181 3C220 3 291 3 327 0L327 31L303 31C226 31 224 42 224 78L224 331L339 331C355 331 397 331 432 297C470 261 470 230 470 163C470 98 470 58 511 20C552 -16 607 -22 637 -22C715 -22 732 60 732 88C732 94 732 105 719 105C708 105 708 96 707 89C701 18 666 0 641 0C592 0 584 51 570 144L557 224C539 288 490 321 435 340C532 364 610 425 610 503C610 599 496 683 349 683L35 683L35 652L59 652C136 652 138 641 138 605L138 78C138 42 136 31 59 31L35 31ZM224 353L224 612C224 635 224 647 246 650C256 652 285 652 305 652C395 652 507 648 507 503C507 434 483 353 335 353ZM755 -124C755 -169 797 -205 847 -205C910 -205 951 -148 975 -91L1151 336C1177 399 1228 400 1244 400L1244 431C1221 429 1192 428 1169 428C1151 428 1104 430 1082 431L1082 400C1113 399 1129 382 1129 357C1129 347 1128 345 1123 333L1022 87L911 356C907 366 905 370 905 374C905 400 942 400 961 400L961 431C935 430 869 428 852 428C825 428 785 429 755 431L755 400C803 400 822 400 836 365L986 0C981 -13 967 -46 961 -59C939 -114 911 -183 847 -183C842 -183 819 -183 800 -165C831 -161 839 -139 839 -123C839 -97 820 -81 797 -81C777 -81 755 -94 755 -124ZM1297 215C1297 88 1395 -11 1509 -11C1573 -11 1618 23 1643 55L1643 -11L1790 0L1790 31C1720 31 1712 38 1712 87L1712 694L1568 683L1568 652C1638 652 1646 645 1646 596L1646 380C1617 416 1574 442 1520 442C1402 442 1297 344 1297 215ZM1380 214C1380 251 1382 311 1411 356C1432 387 1470 420 1524 420C1559 420 1601 405 1632 360C1643 343 1643 341 1643 323L1643 118C1643 100 1643 98 1632 81C1602 33 1557 11 1514 11C1469 11 1433 37 1409 75C1383 116 1380 173 1380 214ZM1846 652C1916 652 1924 645 1924 596L1924 0L1949 0C1950 1 1958 15 1985 62C2000 39 2042 -11 2116 -11C2235 -11 2339 87 2339 216C2339 343 2241 442 2127 442C2049 442 2006 395 1990 377L1990 694L1846 683ZM1993 114L1993 320C1993 339 1993 340 2004 356C2043 412 2098 420 2122 420C2167 420 2203 394 2227 356C2253 315 2256 258 2256 217C2256 180 2254 120 2225 75C2204 44 2166 11 2112 11C2067 11 2031 35 2007 72C1993 93 1993 96 1993 114ZM2429 220C2429 86 2534 -11 2649 -11C2771 -11 2816 100 2816 119C2816 129 2808 131 2803 131C2794 131 2792 125 2790 117C2755 14 2665 14 2655 14C2605 14 2565 44 2542 81C2512 129 2512 195 2512 231L2791 231C2813 231 2816 231 2816 252C2816 351 2762 448 2637 448C2521 448 2429 345 2429 220ZM2513 252C2519 401 2603 426 2637 426C2740 426 2750 291 2750 252ZM2873 0C2912 1 2959 3 2987 3C3027 3 3074 3 3114 0L3114 31L3093 31C3019 31 3017 42 3017 78L3017 232C3017 331 3059 420 3135 420C3142 420 3144 420 3146 419C3143 418 3123 406 3123 380C3123 352 3144 337 3166 337C3184 337 3209 349 3209 381C3209 413 3178 442 3135 442C3062 442 3026 375 3012 332L3012 442L2873 431L2873 400C2943 400 2951 393 2951 344L2951 76C2951 31 2940 31 2873 31ZM3264 -79C3264 -151 3363 -206 3485 -206C3603 -206 3707 -155 3707 -77C3707 -42 3693 9 3642 37C3589 65 3531 65 3470 65C3445 65 3402 65 3395 66C3363 70 3342 101 3342 133C3342 137 3342 160 3359 180C3398 152 3439 149 3458 149C3551 149 3620 218 3620 295C3620 332 3604 369 3579 392C3615 426 3651 431 3669 431C3671 431 3676 431 3679 430C3668 426 3663 415 3663 403C3663 386 3676 374 3692 374C3702 374 3721 381 3721 404C3721 421 3709 453 3670 453C3650 453 3606 447 3564 406C3522 439 3480 442 3458 442C3365 442 3296 373 3296 296C3296 252 3318 214 3343 193C3330 178 3312 145 3312 110C3312 79 3325 41 3356 21C3296 4 3264 -39 3264 -79ZM3316 -79C3316 -33 3354 4 3398 7L3457 7C3543 7 3655 7 3655 -79C3655 -133 3584 -183 3486 -183C3385 -183 3316 -132 3316 -79ZM3371 295C3371 322 3372 354 3387 379C3395 391 3418 419 3458 419C3545 419 3545 319 3545 296C3545 269 3544 237 3529 212C3521 200 3498 172 3458 172C3371 172 3371 272 3371 295ZM4144 616C4144 589 4166 563 4197 563C4225 563 4250 584 4250 616C4250 648 4225 669 4197 669C4166 669 4144 642 4144 616ZM4102 0C4134 1 4188 3 4212 3C4247 3 4282 1 4316 0L4316 31C4250 31 4246 36 4246 75L4246 442L4106 431L4106 400C4171 400 4180 394 4180 345L4180 76C4180 31 4169 31 4102 31ZM4378 0C4413 1 4464 3 4491 3C4517 3 4569 1 4603 0L4603 31C4536 31 4525 31 4525 76L4525 260C4525 364 4596 420 4660 420C4723 420 4734 366 4734 309L4734 76C4734 31 4723 31 4656 31L4656 0C4691 1 4742 3 4769 3C4795 3 4847 1 4881 0L4881 31C4829 31 4804 31 4803 61L4803 252C4803 338 4803 369 4772 405C4758 422 4725 442 4667 442C4594 442 4547 399 4519 337L4519 442L4378 431L4378 400C4448 400 4456 393 4456 344L4456 76C4456 31 4445 31 4378 31ZM4892 400L4977 400L4977 124C4977 1 5070 -11 5106 -11C5177 -11 5205 60 5205 124L5205 181L5180 181L5180 126C5180 52 5150 14 5113 14C5046 14 5046 105 5046 122L5046 400L5189 400L5189 431L5046 431L5046 615L5021 615C5020 533 4990 426 4892 422ZM5289 220C5289 86 5394 -11 5509 -11C5631 -11 5676 100 5676 119C5676 129 5668 131 5663 131C5654 131 5652 125 5650 117C5615 14 5525 14 5515 14C5465 14 5425 44 5402 81C5372 129 5372 195 5372 231L5651 231C5673 231 5676 231 5676 252C5676 351 5622 448 5497 448C5381 448 5289 345 5289 220ZM5373 252C5379 401 5463 426 5497 426C5600 426 5610 291 5610 252ZM5733 0C5772 1 5819 3 5847 3C5887 3 5934 3 5974 0L5974 31L5953 31C5879 31 5877 42 5877 78L5877 232C5877 331 5919 420 5995 420C6002 420 6004 420 6006 419C6003 418 5983 406 5983 380C5983 352 6004 337 6026 337C6044 337 6069 349 6069 381C6069 413 6038 442 5995 442C5922 442 5886 375 5872 332L5872 442L5733 431L5733 400C5803 400 5811 393 5811 344L5811 76C5811 31 5800 31 5733 31ZM6138 95C6138 14 6235 -11 6298 -11C6364 -11 6410 29 6429 76C6433 36 6460 -6 6507 -6C6528 -6 6589 8 6589 89L6589 145L6564 145L6564 89C6564 31 6539 25 6528 25C6495 25 6491 70 6491 75L6491 275C6491 317 6491 356 6455 393C6416 432 6366 448 6318 448C6236 448 6167 401 6167 335C6167 305 6187 288 6213 288C6241 288 6259 308 6259 334C6259 346 6254 379 6208 380C6235 415 6284 426 6316 426C6365 426 6422 387 6422 298L6422 261C6371 258 6301 255 6238 225C6163 191 6138 139 6138 95ZM6215 96C6215 151 6257 234 6422 240L6422 140C6422 45 6350 11 6305 11C6256 11 6215 46 6215 96ZM6630 216C6630 88 6729 -11 6845 -11C6979 -11 7011 109 7011 119C7011 129 7001 129 6998 129C6989 129 6987 125 6985 119C6956 26 6891 14 6854 14C6801 14 6713 57 6713 218C6713 381 6795 423 6848 423C6857 423 6920 422 6955 386C6914 383 6908 353 6908 340C6908 314 6926 294 6954 294C6980 294 7000 311 7000 341C7000 409 6924 448 6847 448C6722 448 6630 340 6630 216ZM7059 400L7144 400L7144 124C7144 1 7237 -11 7273 -11C7344 -11 7372 60 7372 124L7372 181L7347 181L7347 126C7347 52 7317 14 7280 14C7213 14 7213 105 7213 122L7213 400L7356 400L7356 431L7213 431L7213 615L7188 615C7187 533 7157 426 7059 422ZM7503 616C7503 589 7525 563 7556 563C7584 563 7609 584 7609 616C7609 648 7584 669 7556 669C7525 669 7503 642 7503 616ZM7461 0C7493 1 7547 3 7571 3C7606 3 7641 1 7675 0L7675 31C7609 31 7605 36 7605 75L7605 442L7465 431L7465 400C7530 400 7539 394 7539 345L7539 76C7539 31 7528 31 7461 31ZM7733 214C7733 85 7837 -11 7954 -11C8075 -11 8176 87 8176 214C8176 342 8076 448 7955 448C7830 448 7733 339 7733 214ZM7816 222C7816 261 7816 315 7840 359C7867 405 7914 426 7954 426C7998 426 8041 404 8067 361C8093 318 8093 260 8093 222C8093 186 8093 132 8071 88C8049 43 8005 14 7955 14C7912 14 7868 35 7841 81C7816 125 7816 186 7816 222ZM8237 0C8272 1 8323 3 8350 3C8376 3 8428 1 8462 0L8462 31C8395 31 8384 31 8384 76L8384 260C8384 364 8455 420 8519 420C8582 420 8593 366 8593 309L8593 76C8593 31 8582 31 8515 31L8515 0C8550 1 8601 3 8628 3C8654 3 8706 1 8740 0L8740 31C8688 31 8663 31 8662 61L8662 252C8662 338 8662 369 8631 405C8617 422 8584 442 8526 442C8453 442 8406 399 8378 337L8378 442L8237 431L8237 400C8307 400 8315 393 8315 344L8315 76C8315 31 8304 31 8237 31ZM9135 95C9135 14 9232 -11 9295 -11C9361 -11 9407 29 9426 76C9430 36 9457 -6 9504 -6C9525 -6 9586 8 9586 89L9586 145L9561 145L9561 89C9561 31 9536 25 9525 25C9492 25 9488 70 9488 75L9488 275C9488 317 9488 356 9452 393C9413 432 9363 448 9315 448C9233 448 9164 401 9164 335C9164 305 9184 288 9210 288C9238 288 9256 308 9256 334C9256 346 9251 379 9205 380C9232 415 9281 426 9313 426C9362 426 9419 387 9419 298L9419 261C9368 258 9298 255 9235 225C9160 191 9135 139 9135 95ZM9212 96C9212 151 9254 234 9419 240L9419 140C9419 45 9347 11 9302 11C9253 11 9212 46 9212 96ZM9626 13C9626 -4 9626 -11 9637 -11C9642 -11 9643 -10 9662 9C9664 11 9664 13 9682 32C9726 -10 9771 -11 9792 -11C9907 -11 9953 56 9953 128C9953 181 9923 211 9911 223C9878 255 9839 263 9797 271C9741 282 9674 295 9674 353C9674 388 9700 429 9786 429C9896 429 9901 339 9903 308C9904 299 9913 299 9915 299C9928 299 9928 304 9928 323L9928 424C9928 441 9928 448 9917 448C9912 448 9910 448 9897 436C9894 432 9884 423 9880 420C9842 448 9801 448 9786 448C9664 448 9626 381 9626 325C9626 290 9642 262 9669 240C9701 214 9729 208 9801 194C9823 190 9905 174 9905 102C9905 51 9870 11 9792 11C9708 11 9672 68 9653 153C9650 166 9649 170 9639 170C9626 170 9626 163 9626 145Z" stroke="rgb(50,110,30)" stroke-opacity="1" stroke-width="0" fill="rgb(50,110,30)" fill-opacity="1"></path></g></g></g></g><g><g><g><g><g><g><g transform="matrix(1,0,0,1,518.933349609375,64.64999389648438)"><path transform="matrix(0.017,0,0,-0.017,0,0)" d="M477 677C671 677 703 544 673 374C649 233 576 89 413 68L401 0C504 -2 609 -2 711 -6C723 44 736 95 752 145L752 148L733 148L733 145C711 92 708 75 648 75L520 75C664 131 758 253 784 398C822 614 681 704 482 704C281 704 99 621 60 398C34 254 86 131 210 75L81 75C20 75 22 95 18 148L-2 148C-4 97 -7 45 -11 -6C93 -2 197 -3 300 0L312 68C155 89 136 235 161 377C192 552 287 677 477 677Z" stroke="rgb(65,90,140)" stroke-opacity="1" stroke-width="0" fill="rgb(65,90,140)" fill-opacity="1"></path></g></g></g></g></g></g></g><g><g><g><g><g><g><g transform="matrix(1,0,0,1,561.199951171875,44.01666259765625)"><path transform="matrix(0.017,0,0,-0.017,0,0)" d="M-33 6L-28 -4C79 0 185 0 292 0C393 0 494 -1 594 -4L602 6C560 116 534 238 504 354C475 466 442 580 424 697L399 697C336 587 53 127 -33 6ZM482 37L50 37C148 215 249 389 356 564L363 564C408 391 449 215 482 37Z" stroke="rgb(50,110,30)" stroke-opacity="1" stroke-width="0" fill="rgb(50,110,30)" fill-opacity="1"></path></g></g></g></g></g></g></g><g><g><g><g><g><g><svg x="497.0833740234375" overflow="visible" y="48.600006103515625" height="37.399993896484375" width="8.5"><path d=" M 8.35 1.70 c 0.00 -0.03 -0.05 -0.06 -0.12 -0.06 c -0.15 0.00 -0.44 0.09 -0.51 0.11 c -3.03 1.08 -3.59 3.33 -3.59 7.41 v 0.60 h 1.62 v -1.28 c 0.00 -2.20 0.12 -5.16 2.13 -6.48 c 0.15 -0.10 0.48 -0.22 0.48 -0.31 z  M 4.13 9.17 v 5.68 h 1.62 v -5.68 z  M 5.75 14.85 h -1.62 v 0.59 c 0.00 2.97 -2.74 3.66 -2.75 3.66 v 0.02 c 0.02 0.00 2.75 0.75 2.75 3.71 h 1.62 c 0.00 -1.05 -0.09 -2.87 -2.96 -3.69 c 2.87 -0.80 2.96 -2.63 2.96 -3.69 v -0.59 z  M 4.13 22.55 v 5.68 h 1.62 v -5.68 z" style="fill:rgb(0,0,0);fill-opacity:1;stroke-width:1px;stroke:none;stroke-opacity:1;"></path><path d=" M 8.35 35.70 c 0.00 0.03 -0.05 0.06 -0.12 0.06 c -0.15 0.00 -0.44 -0.09 -0.51 -0.11 c -3.03 -1.08 -3.59 -3.33 -3.59 -7.41 v -0.60 h 1.62 v 1.28 c 0.00 2.20 0.12 5.16 2.13 6.48 c 0.15 0.10 0.48 0.22 0.48 0.31 z" style="fill:rgb(0,0,0);fill-opacity:1;stroke-width:1px;stroke:none;stroke-opacity:1;"></path></svg></g></g></g></g></g></g><g><g><g><g><g><g><g transform="matrix(1,0,0,1,481.25,64.64999389648438)"><path transform="matrix(0.017,0,0,-0.017,0,0)" d="M394 -12C554 -12 671 181 673 325C674 363 660 458 607 458C592 458 562 441 548 434L548 423C593 392 607 338 606 284C605 189 542 17 425 17C366 17 362 73 363 119C365 185 380 261 403 324L393 324C372 317 350 309 328 304C323 217 294 16 174 16C111 16 100 81 100 129C102 278 168 388 306 443L306 463C152 428 40 300 25 137C9 -29 213 -49 295 47C316 3 344 -12 394 -12Z" stroke="rgb(0,0,0)" stroke-opacity="1" stroke-width="0" fill="rgb(0,0,0)" fill-opacity="1"></path></g></g><g><g><g><g><g transform="matrix(1,0,0,1,493.9166259765625,67.45000305175782)"><path transform="matrix(0.0119,0,0,-0.0119,0,0)" d="M271 204L242 77C238 60 236 42 236 26C236 4 245 -9 260 -9C283 -9 324 17 406 85L399 106C375 86 346 59 324 59C315 59 309 68 309 82C309 87 309 90 310 93L402 472L392 481L359 463C318 478 301 482 274 482C246 482 226 477 199 464C137 433 104 403 79 354C35 265 4 145 4 67C4 23 19 -11 38 -11C75 -11 155 41 271 204ZM319 414C297 305 278 253 244 201C187 117 126 59 94 59C82 59 76 72 76 99C76 163 104 280 139 360C163 415 186 433 234 433C257 433 275 429 319 414Z" stroke="rgb(0,0,0)" stroke-opacity="1" stroke-width="0" fill="rgb(0,0,0)" fill-opacity="1"></path></g></g></g></g></g></g></g></g></g></g><g><g><g><g><g><g><g transform="matrix(1,0,0,1,91.1666259765625,126.183349609375)"><path transform="matrix(0.017,0,0,-0.017,0,0)" d="M105 664L161 662C185 661 196 653 196 635C196 621 192 589 187 559L112 125C96 34 94 32 54 28L13 25L9 -3L51 -2C98 0 117 0 141 0L238 -3L264 -3L267 25L218 28C191 30 182 38 182 58C182 67 183 76 186 93L287 648C316 654 336 656 363 656C450 656 496 617 496 543C496 448 418 378 314 378L270 378L267 367C401 172 432 124 507 -3C507 -3 592 0 592 0C593 0 607 -1 626 -3L639 -3L639 24C599 29 588 37 559 79L375 354C430 364 459 376 495 402C553 444 584 499 584 560C584 646 520 693 409 691L108 691Z" stroke="rgb(0,0,0)" stroke-opacity="1" stroke-width="0" fill="rgb(0,0,0)" fill-opacity="1"></path></g></g></g></g></g></g></g></svg>
</svg>
