<svg xmlns="http://www.w3.org/2000/svg" xmlns:xlink="http://www.w3.org/1999/xlink" x="0" y="0" width="662" height="375.33331298828125" style="
        width:662px;
        height:375.33331298828125px;
        background: transparent;
        fill: none;
">
        
        
        <svg xmlns="http://www.w3.org/2000/svg" class="role-diagram-draw-area"><g class="shapes-region" style="stroke: black; fill: none;"><g class="composite-shape" data-amt="diagram/shapes/plot" transform="matrix(1,0,0,1,27.333333333333314,-166.91671752929688)"><g><g><g class="test-xgi"><line x1="79.26781685360214" y1="0" x2="79.26781685360214" y2="342.2666819254556" fill="none" stroke="#c3c3c3" stroke-width="0.5"/><line x1="249.55071132032288" y1="0" x2="249.55071132032288" y2="342.2666819254556" fill="none" stroke="#c3c3c3" stroke-width="0.5"/><line x1="419.83360578704355" y1="0" x2="419.83360578704355" y2="342.2666819254556" fill="none" stroke="#c3c3c3" stroke-width="0.5"/></g></g><g><g class="test-xti" style="font-family: Asana-Math, Asana;"><line x1="0" y1="296.3875141945705" x2="558.6666666666667" y2="296.3875141945705" fill="none" stroke="rgb(0,0,0)" stroke-opacity="1" stroke-width="1"/><line x1="249.55071132032288" y1="292.3875141945705" x2="249.55071132032288" y2="300.3875141945705" fill="none" stroke="rgb(0,0,0)" stroke-opacity="1" stroke-width="1"/><line x1="419.83360578704355" y1="292.3875141945705" x2="419.83360578704355" y2="300.3875141945705" fill="none" stroke="rgb(0,0,0)" stroke-opacity="1" stroke-width="1"/><path d="M553.6666666666667,292.78751419457046 L561.6666666666667,296.3875141945705 L553.6666666666667,299.9875141945705 Z" stroke="none" stroke-width="1" fill="rgb(0,0,0)" fill-opacity="1"/></g><g class="test-plot-expression"><defs><clipPath id="cpgx94so91v"><rect x="1" y="1" width="560.6666666666667" height="340.2666819254556"/></clipPath></defs><g clip-path="url(#cpgx94so91v)"><path d=" M0.00,296.23 L0.38,296.23 L0.76,296.23 L1.15,296.23 L1.53,296.22 L1.91,296.22 L2.29,296.22 L2.67,296.22 L3.06,296.22 L3.44,296.22 L3.82,296.22 L4.20,296.22 L4.58,296.22 L4.97,296.22 L5.35,296.22 L5.73,296.21 L6.11,296.21 L6.49,296.21 L6.88,296.21 L7.26,296.21 L7.64,296.21 L8.02,296.21 L8.40,296.21 L8.79,296.21 L9.17,296.21 L9.55,296.20 L9.93,296.20 L10.31,296.20 L10.70,296.20 L11.08,296.20 L11.46,296.20 L11.84,296.20 L12.22,296.20 L12.61,296.20 L12.99,296.19 L13.37,296.19 L13.75,296.19 L14.13,296.19 L14.52,296.19 L14.90,296.19 L15.28,296.19 L15.66,296.19 L16.04,296.19 L16.43,296.18 L16.81,296.18 L17.19,296.18 L17.57,296.18 L17.95,296.18 L18.34,296.18 L18.72,296.18 L19.10,296.18 L19.48,296.18 L19.86,296.17 L20.25,296.17 L20.63,296.17 L21.01,296.17 L21.39,296.17 L21.77,296.17 L22.16,296.17 L22.54,296.17 L22.92,296.16 L23.30,296.16 L23.68,296.16 L24.07,296.16 L24.45,296.16 L24.83,296.16 L25.21,296.16 L25.59,296.15 L25.98,296.15 L26.36,296.15 L26.74,296.15 L27.12,296.15 L27.51,296.15 L27.89,296.15 L28.27,296.15 L28.65,296.14 L29.03,296.14 L29.42,296.14 L29.80,296.14 L30.18,296.14 L30.56,296.14 L30.94,296.13 L31.33,296.13 L31.71,296.13 L32.09,296.13 L32.47,296.13 L32.85,296.13 L33.24,296.13 L33.62,296.12 L34.00,296.12 L34.38,296.12 L34.76,296.12 L35.15,296.12 L35.53,296.12 L35.91,296.11 L36.29,296.11 L36.67,296.11 L37.06,296.11 L37.44,296.11 L37.82,296.11 L38.20,296.10 L38.58,296.10 L38.97,296.10 L39.35,296.10 L39.73,296.10 L40.11,296.10 L40.49,296.09 L40.88,296.09 L41.26,296.09 L41.64,296.09 L42.02,296.09 L42.40,296.09 L42.79,296.08 L43.17,296.08 L43.55,296.08 L43.93,296.08 L44.31,296.08 L44.70,296.07 L45.08,296.07 L45.46,296.07 L45.84,296.07 L46.22,296.07 L46.61,296.06 L46.99,296.06 L47.37,296.06 L47.75,296.06 L48.13,296.06 L48.52,296.05 L48.90,296.05 L49.28,296.05 L49.66,296.05 L50.04,296.05 L50.43,296.04 L50.81,296.04 L51.19,296.04 L51.57,296.04 L51.95,296.04 L52.34,296.03 L52.72,296.03 L53.10,296.03 L53.48,296.03 L53.86,296.02 L54.25,296.02 L54.63,296.02 L55.01,296.02 L55.39,296.01 L55.77,296.01 L56.16,296.01 L56.54,296.01 L56.92,296.01 L57.30,296.00 L57.68,296.00 L58.07,296.00 L58.45,296.00 L58.83,295.99 L59.21,295.99 L59.59,295.99 L59.98,295.99 L60.36,295.98 L60.74,295.98 L61.12,295.98 L61.50,295.97 L61.89,295.97 L62.27,295.97 L62.65,295.97 L63.03,295.96 L63.41,295.96 L63.80,295.96 L64.18,295.96 L64.56,295.95 L64.94,295.95 L65.32,295.95 L65.71,295.94 L66.09,295.94 L66.47,295.94 L66.85,295.94 L67.23,295.93 L67.62,295.93 L68.00,295.93 L68.38,295.92 L68.76,295.92 L69.14,295.92 L69.53,295.91 L69.91,295.91 L70.29,295.91 L70.67,295.91 L71.05,295.90 L71.44,295.90 L71.82,295.90 L72.20,295.89 L72.58,295.89 L72.96,295.89 L73.35,295.88 L73.73,295.88 L74.11,295.88 L74.49,295.87 L74.87,295.87 L75.26,295.87 L75.64,295.86 L76.02,295.86 L76.40,295.85 L76.78,295.85 L77.17,295.85 L77.55,295.84 L77.93,295.84 L78.31,295.84 L78.69,295.83 L79.08,295.83 L79.46,295.83 L79.84,295.82 L80.22,295.82 L80.60,295.81 L80.99,295.81 L81.37,295.81 L81.75,295.80 L82.13,295.80 L82.52,295.79 L82.90,295.79 L83.28,295.79 L83.66,295.78 L84.04,295.78 L84.43,295.77 L84.81,295.77 L85.19,295.77 L85.57,295.76 L85.95,295.76 L86.34,295.75 L86.72,295.75 L87.10,295.74 L87.48,295.74 L87.86,295.73 L88.25,295.73 L88.63,295.73 L89.01,295.72 L89.39,295.72 L89.77,295.71 L90.16,295.71 L90.54,295.70 L90.92,295.70 L91.30,295.69 L91.68,295.69 L92.07,295.68 L92.45,295.68 L92.83,295.67 L93.21,295.67 L93.59,295.66 L93.98,295.66 L94.36,295.65 L94.74,295.65 L95.12,295.64 L95.50,295.64 L95.89,295.63 L96.27,295.63 L96.65,295.62 L97.03,295.62 L97.41,295.61 L97.80,295.60 L98.18,295.60 L98.56,295.59 L98.94,295.59 L99.32,295.58 L99.71,295.58 L100.09,295.57 L100.47,295.56 L100.85,295.56 L101.23,295.55 L101.62,295.55 L102.00,295.54 L102.38,295.53 L102.76,295.53 L103.14,295.52 L103.53,295.52 L103.91,295.51 L104.29,295.50 L104.67,295.50 L105.05,295.49 L105.44,295.48 L105.82,295.48 L106.20,295.47 L106.58,295.46 L106.96,295.46 L107.35,295.45 L107.73,295.44 L108.11,295.44 L108.49,295.43 L108.87,295.42 L109.26,295.41 L109.64,295.41 L110.02,295.40 L110.40,295.39 L110.78,295.38 L111.17,295.38 L111.55,295.37 L111.93,295.36 L112.31,295.35 L112.69,295.35 L113.08,295.34 L113.46,295.33 L113.84,295.32 L114.22,295.32 L114.60,295.31 L114.99,295.30 L115.37,295.29 L115.75,295.28 L116.13,295.27 L116.51,295.27 L116.90,295.26 L117.28,295.25 L117.66,295.24 L118.04,295.23 L118.42,295.22 L118.81,295.21 L119.19,295.20 L119.57,295.20 L119.95,295.19 L120.33,295.18 L120.72,295.17 L121.10,295.16 L121.48,295.15 L121.86,295.14 L122.24,295.13 L122.63,295.12 L123.01,295.11 L123.39,295.10 L123.77,295.09 L124.15,295.08 L124.54,295.07 L124.92,295.06 L125.30,295.05 L125.68,295.04 L126.06,295.03 L126.45,295.02 L126.83,295.01 L127.21,295.00 L127.59,294.98 L127.97,294.97 L128.36,294.96 L128.74,294.95 L129.12,294.94 L129.50,294.93 L129.88,294.92 L130.27,294.91 L130.65,294.89 L131.03,294.88 L131.41,294.87 L131.79,294.86 L132.18,294.85 L132.56,294.83 L132.94,294.82 L133.32,294.81 L133.70,294.80 L134.09,294.78 L134.47,294.77 L134.85,294.76 L135.23,294.74 L135.62,294.73 L136.00,294.72 L136.38,294.70 L136.76,294.69 L137.14,294.68 L137.53,294.66 L137.91,294.65 L138.29,294.63 L138.67,294.62 L139.05,294.60 L139.44,294.59 L139.82,294.57 L140.20,294.56 L140.58,294.54 L140.96,294.53 L141.35,294.51 L141.73,294.50 L142.11,294.48 L142.49,294.47 L142.87,294.45 L143.26,294.44 L143.64,294.42 L144.02,294.40 L144.40,294.39 L144.78,294.37 L145.17,294.35 L145.55,294.34 L145.93,294.32 L146.31,294.30 L146.69,294.28 L147.08,294.27 L147.46,294.25 L147.84,294.23 L148.22,294.21 L148.60,294.19 L148.99,294.17 L149.37,294.16 L149.75,294.14 L150.13,294.12 L150.51,294.10 L150.90,294.08 L151.28,294.06 L151.66,294.04 L152.04,294.02 L152.42,294.00 L152.81,293.98 L153.19,293.96 L153.57,293.94 L153.95,293.91 L154.33,293.89 L154.72,293.87 L155.10,293.85 L155.48,293.83 L155.86,293.80 L156.24,293.78 L156.63,293.76 L157.01,293.74 L157.39,293.71 L157.77,293.69 L158.15,293.67 L158.54,293.64 L158.92,293.62 L159.30,293.59 L159.68,293.57 L160.06,293.54 L160.45,293.52 L160.83,293.49 L161.21,293.47 L161.59,293.44 L161.97,293.42 L162.36,293.39 L162.74,293.36 L163.12,293.33 L163.50,293.31 L163.88,293.28 L164.27,293.25 L164.65,293.22 L165.03,293.19 L165.41,293.17 L165.79,293.14 L166.18,293.11 L166.56,293.08 L166.94,293.05 L167.32,293.02 L167.70,292.99 L168.09,292.96 L168.47,292.92 L168.85,292.89 L169.23,292.86 L169.61,292.83 L170.00,292.79 L170.38,292.76 L170.76,292.73 L171.14,292.69 L171.52,292.66 L171.91,292.63 L172.29,292.59 L172.67,292.55 L173.05,292.52 L173.43,292.48 L173.82,292.45 L174.20,292.41 L174.58,292.37 L174.96,292.33 L175.34,292.30 L175.73,292.26 L176.11,292.22 L176.49,292.18 L176.87,292.14 L177.25,292.10 L177.64,292.06 L178.02,292.02 L178.40,291.98 L178.78,291.93 L179.16,291.89 L179.55,291.85 L179.93,291.80 L180.31,291.76 L180.69,291.72 L181.07,291.67 L181.46,291.63 L181.84,291.58 L182.22,291.53 L182.60,291.49 L182.98,291.44 L183.37,291.39 L183.75,291.34 L184.13,291.29 L184.51,291.24 L184.89,291.19 L185.28,291.14 L185.66,291.09 L186.04,291.04 L186.42,290.98 L186.80,290.93 L187.19,290.88 L187.57,290.82 L187.95,290.77 L188.33,290.71 L188.72,290.65 L189.10,290.60 L189.48,290.54 L189.86,290.48 L190.24,290.42 L190.63,290.36 L191.01,290.30 L191.39,290.24 L191.77,290.18 L192.15,290.12 L192.54,290.05 L192.92,289.99 L193.30,289.92 L193.68,289.86 L194.06,289.79 L194.45,289.72 L194.83,289.65 L195.21,289.59 L195.59,289.52 L195.97,289.44 L196.36,289.37 L196.74,289.30 L197.12,289.23 L197.50,289.15 L197.88,289.08 L198.27,289.00 L198.65,288.93 L199.03,288.85 L199.41,288.77 L199.79,288.69 L200.18,288.61 L200.56,288.53 L200.94,288.44 L201.32,288.36 L201.70,288.28 L202.09,288.19 L202.47,288.10 L202.85,288.02 L203.23,287.93 L203.61,287.84 L204.00,287.75 L204.38,287.65 L204.76,287.56 L205.14,287.46 L205.52,287.37 L205.91,287.27 L206.29,287.17 L206.67,287.07 L207.05,286.97 L207.43,286.87 L207.82,286.77 L208.20,286.66 L208.58,286.56 L208.96,286.45 L209.34,286.34 L209.73,286.23 L210.11,286.12 L210.49,286.01 L210.87,285.89 L211.25,285.78 L211.64,285.66 L212.02,285.54 L212.40,285.42 L212.78,285.30 L213.16,285.17 L213.55,285.05 L213.93,284.92 L214.31,284.79 L214.69,284.66 L215.07,284.53 L215.46,284.40 L215.84,284.26 L216.22,284.13 L216.60,283.99 L216.98,283.85 L217.37,283.70 L217.75,283.56 L218.13,283.41 L218.51,283.26 L218.89,283.11 L219.28,282.96 L219.66,282.81 L220.04,282.65 L220.42,282.49 L220.80,282.33 L221.19,282.17 L221.57,282.00 L221.95,281.83 L222.33,281.67 L222.71,281.49 L223.10,281.32 L223.48,281.14 L223.86,280.96 L224.24,280.78 L224.62,280.60 L225.01,280.41 L225.39,280.22 L225.77,280.03 L226.15,279.83 L226.53,279.64 L226.92,279.44 L227.30,279.23 L227.68,279.03 L228.06,278.82 L228.44,278.61 L228.83,278.39 L229.21,278.18 L229.59,277.96 L229.97,277.73 L230.35,277.51 L230.74,277.28 L231.12,277.04 L231.50,276.81 L231.88,276.57 L232.26,276.32 L232.65,276.08 L233.03,275.83 L233.41,275.57 L233.79,275.31 L234.17,275.05 L234.56,274.79 L234.94,274.52 L235.32,274.24 L235.70,273.97 L236.08,273.69 L236.47,273.40 L236.85,273.11 L237.23,272.82 L237.61,272.52 L237.99,272.22 L238.38,271.91 L238.76,271.60 L239.14,271.28 L239.52,270.96 L239.90,270.64 L240.29,270.31 L240.67,269.97 L241.05,269.63 L241.43,269.28 L241.81,268.93 L242.20,268.58 L242.58,268.22 L242.96,267.85 L243.34,267.48 L243.73,267.10 L244.11,266.71 L244.49,266.32 L244.87,265.93 L245.25,265.53 L245.64,265.12 L246.02,264.70 L246.40,264.28 L246.78,263.85 L247.16,263.42 L247.55,262.98 L247.93,262.53 L248.31,262.08 L248.69,261.61 L249.07,261.14 L249.46,260.67 L249.84,260.18 L250.22,259.69 L250.60,259.19 L250.98,258.68 L251.37,258.17 L251.75,257.64 L252.13,257.11 L252.51,256.57 L252.89,256.02 L253.28,255.46 L253.66,254.89 L254.04,254.32 L254.42,253.73 L254.80,253.13 L255.19,252.53 L255.57,251.91 L255.95,251.29 L256.33,250.65 L256.71,250.01 L257.10,249.35 L257.48,248.68 L257.86,248.00 L258.24,247.31 L258.62,246.61 L259.01,245.90 L259.39,245.17 L259.77,244.43 L260.15,243.68 L260.53,242.92 L260.92,242.14 L261.30,241.35 L261.68,240.55 L262.06,239.74 L262.44,238.91 L262.83,238.06 L263.21,237.20 L263.59,236.33 L263.97,235.44 L264.35,234.54 L264.74,233.62 L265.12,232.68 L265.50,231.73 L265.88,230.76 L266.26,229.77 L266.65,228.77 L267.03,227.75 L267.41,226.71 L267.79,225.66 L268.17,224.58 L268.56,223.48 L268.94,222.37 L269.32,221.24 L269.70,220.08 L270.08,218.91 L270.47,217.71 L270.85,216.49 L271.23,215.25 L271.61,213.99 L271.99,212.70 L272.38,211.39 L272.76,210.06 L273.14,208.70 L273.52,207.32 L273.90,205.91 L274.29,204.48 L274.67,203.02 L275.05,201.53 L275.43,200.01 L275.81,198.47 L276.20,196.90 L276.58,195.29 L276.96,193.66 L277.34,192.00 L277.72,190.30 L278.11,188.57 L278.49,186.81 L278.87,185.02 L279.25,183.19 L279.63,181.33 L280.02,179.43 L280.40,177.49 L280.78,175.52 L281.16,173.51 L281.54,171.46 L281.93,169.37 L282.31,167.24 L282.69,165.06 L283.07,162.85 L283.45,160.59 L283.84,158.28 L284.22,155.93 L284.60,153.53 L284.98,151.09 L285.36,148.59 L285.75,146.05 L286.13,143.45 L286.51,140.80 L286.89,138.10 L287.27,135.35 L287.66,132.53 L288.04,129.66 L288.42,126.73 L288.80,123.74 L289.18,120.69 L289.57,117.58 L289.95,114.40 L290.33,111.15 L290.71,107.84 L291.09,104.46 L291.48,101.01 L291.86,97.48 L292.24,93.88 L292.62,90.21 L293.00,86.45 L293.39,82.62 L293.77,78.70 L294.15,74.70 L294.53,70.61 L294.91,66.44 L295.30,62.17 L295.68,57.82 L296.06,53.36 L296.44,48.82 L296.83,44.17 L297.21,39.41 L297.59,34.56 L297.97,29.60 L298.35,24.52 L298.74,19.34 L299.12,14.03 L299.50,8.61 L299.88,3.07 L300.26,-2.60 L300.65,-8.39 L301.03,-14.32 L301.41,-20.38 L301.79,-26.59 L302.17,-32.93 L302.56,-39.42 L302.94,-46.06 L303.32,-52.85 L303.70,-59.80 L304.08,-66.91 L304.47,-74.19 L304.85,-81.64 L305.23,-89.26 L305.61,-97.06 L305.99,-105.05 L306.38,-113.23 L306.76,-121.60 L307.14,-130.18 L307.52,-138.96 L307.90,-147.95 L308.29,-157.16 L308.67,-166.59 L309.05,-176.25 L309.43,-186.15 L309.81,-196.29 L310.20,-206.68 L310.58,-217.33 L310.96,-228.24 L311.34,-239.42 L311.72,-250.88 L312.11,-262.63 L312.49,-274.67 L312.87,-287.02 L313.25,-299.68 L313.63,-312.66 L314.02,-325.97 L314.40,-339.62 L314.78,-342.27 L315.16,-342.27 L315.54,-342.27 L315.93,-342.27 L316.31,-342.27 L316.69,-342.27 L317.07,-342.27 L317.45,-342.27 L317.84,-342.27 L318.22,-342.27 L318.60,-342.27 L318.98,-342.27 L319.36,-342.27 L319.75,-342.27 L320.13,-342.27 L320.51,-342.27 L320.89,-342.27 L321.27,-342.27 L321.66,-342.27 L322.04,-342.27 L322.42,-342.27 L322.80,-342.27 L323.18,-342.27 L323.57,-342.27 L323.95,-342.27 L324.33,-342.27 L324.71,-342.27 L325.09,-342.27 L325.48,-342.27 L325.86,-342.27 L326.24,-342.27 L326.62,-342.27 L327.00,-342.27 L327.39,-342.27 L327.77,-342.27 L328.15,-342.27 L328.53,-342.27 L328.91,-342.27 L329.30,-342.27 L329.68,-342.27 L330.06,-342.27 L330.44,-342.27 L330.82,-342.27 L331.21,-342.27 L331.59,-342.27 L331.97,-342.27 L332.35,-342.27 L332.73,-342.27 L333.12,-342.27 L333.50,-342.27 L333.88,-342.27 L334.26,-342.27 L334.64,-342.27 L335.03,-342.27 L335.41,-342.27 L335.79,-342.27 L336.17,-342.27 L336.55,-342.27 L336.94,-342.27 L337.32,-342.27 L337.70,-342.27 L338.08,-342.27 L338.46,-342.27 L338.85,-342.27 L339.23,-342.27 L339.61,-342.27 L339.99,-342.27 L340.37,-342.27 L340.76,-342.27 L341.14,-342.27 L341.52,-342.27 L341.90,-342.27 L342.28,-342.27 L342.67,-342.27 L343.05,-342.27 L343.43,-342.27 L343.81,-342.27 L344.19,-342.27 L344.58,-342.27 L344.96,-342.27 L345.34,-342.27 L345.72,-342.27 L346.10,-342.27 L346.49,-342.27 L346.87,-342.27 L347.25,-342.27 L347.63,-342.27 L348.01,-342.27 L348.40,-342.27 L348.78,-342.27 L349.16,-342.27 L349.54,-342.27 L349.93,-342.27 L350.31,-342.27 L350.69,-342.27 L351.07,-342.27 L351.45,-342.27 L351.84,-342.27 L352.22,-342.27 L352.60,-342.27 L352.98,-342.27 L353.36,-342.27 L353.75,-342.27 L354.13,-342.27 L354.51,-342.27 L354.89,-342.27 L355.27,-342.27 L355.66,-342.27 L356.04,-342.27 L356.42,-342.27 L356.80,-342.27 L357.18,-342.27 L357.57,-342.27 L357.95,-342.27 L358.33,-342.27 L358.71,-342.27 L359.09,-342.27 L359.48,-342.27 L359.86,-342.27 L360.24,-342.27 L360.62,-342.27 L361.00,-342.27 L361.39,-342.27 L361.77,-342.27 L362.15,-342.27 L362.53,-342.27 L362.91,-342.27 L363.30,-342.27 L363.68,-342.27 L364.06,-342.27 L364.44,-342.27 L364.82,-342.27 L365.21,-342.27 L365.59,-342.27 L365.97,-342.27 L366.35,-342.27 L366.73,-342.27 L367.12,-342.27 L367.50,-342.27 L367.88,-342.27 L368.26,-342.27 L368.64,-342.27 L369.03,-342.27 L369.41,-342.27 L369.79,-342.27 L370.17,-342.27 L370.55,-342.27 L370.94,-342.27 L371.32,-342.27 L371.70,-342.27 L372.08,-342.27 L372.46,-342.27 L372.85,-342.27 L373.23,-342.27 L373.61,-342.27 L373.99,-342.27 L374.37,-342.27 L374.76,-342.27 L375.14,-342.27 L375.52,-342.27 L375.90,-342.27 L376.28,-342.27 L376.67,-342.27 L377.05,-342.27 L377.43,-342.27 L377.81,-342.27 L378.19,-342.27 L378.58,-342.27 L378.96,-342.27 L379.34,-342.27 L379.72,-342.27 L380.10,-342.27 L380.49,-342.27 L380.87,-342.27 L381.25,-342.27 L381.63,-342.27 L382.01,-342.27 L382.40,-342.27 L382.78,-342.27 L383.16,-342.27 L383.54,-342.27 L383.92,-342.27 L384.31,-342.27 L384.69,-342.27 L385.07,-342.27 L385.45,-342.27 L385.83,-342.27 L386.22,-342.27 L386.60,-342.27 L386.98,-342.27 L387.36,-342.27 L387.74,-342.27 L388.13,-342.27 L388.51,-342.27 L388.89,-342.27 L389.27,-342.27 L389.65,-342.27 L390.04,-342.27 L390.42,-342.27 L390.80,-342.27 L391.18,-342.27 L391.56,-342.27 L391.95,-342.27 L392.33,-342.27 L392.71,-342.27 L393.09,-342.27 L393.47,-342.27 L393.86,-342.27 L394.24,-342.27 L394.62,-342.27 L395.00,-342.27 L395.38,-342.27 L395.77,-342.27 L396.15,-342.27 L396.53,-342.27 L396.91,-342.27 L397.29,-342.27 L397.68,-342.27 L398.06,-342.27 L398.44,-342.27 L398.82,-342.27 L399.20,-342.27 L399.59,-342.27 L399.97,-342.27 L400.35,-342.27 L400.73,-342.27 L401.11,-342.27 L401.50,-342.27 L401.88,-342.27 L402.26,-342.27 L402.64,-342.27 L403.02,-342.27 L403.41,-342.27 L403.79,-342.27 L404.17,-342.27 L404.55,-342.27 L404.94,-342.27 L405.32,-342.27 L405.70,-342.27 L406.08,-342.27 L406.46,-342.27 L406.85,-342.27 L407.23,-342.27 L407.61,-342.27 L407.99,-342.27 L408.37,-342.27 L408.76,-342.27 L409.14,-342.27 L409.52,-342.27 L409.90,-342.27 L410.28,-342.27 L410.67,-342.27 L411.05,-342.27 L411.43,-342.27 L411.81,-342.27 L412.19,-342.27 L412.58,-342.27 L412.96,-342.27 L413.34,-342.27 L413.72,-342.27 L414.10,-342.27 L414.49,-342.27 L414.87,-342.27 L415.25,-342.27 L415.63,-342.27 L416.01,-342.27 L416.40,-342.27 L416.78,-342.27 L417.16,-342.27 L417.54,-342.27 L417.92,-342.27 L418.31,-342.27 L418.69,-342.27 L419.07,-342.27 L419.45,-342.27 L419.83,-342.27" style="stroke-width: 2px; stroke: rgb(165, 30, 55); stroke-opacity: 1;"/><path d=" M79.27,-342.27 L79.71,-342.27 L80.15,-342.27 L80.59,-342.27 L81.03,-342.27 L81.47,-342.27 L81.91,-342.27 L82.35,-342.27 L82.79,-342.27 L83.23,-342.27 L83.67,-342.27 L84.11,-342.27 L84.55,-342.27 L84.99,-342.27 L85.43,-342.27 L85.87,-342.27 L86.31,-342.27 L86.75,-342.27 L87.19,-342.27 L87.63,-342.27 L88.06,-342.27 L88.50,-342.27 L88.94,-342.27 L89.38,-342.27 L89.82,-342.27 L90.26,-342.27 L90.70,-342.27 L91.14,-342.27 L91.58,-342.27 L92.02,-342.27 L92.46,-342.27 L92.90,-342.27 L93.34,-342.27 L93.78,-342.27 L94.22,-342.27 L94.66,-342.27 L95.10,-342.27 L95.54,-342.27 L95.98,-342.27 L96.42,-342.27 L96.86,-342.27 L97.30,-342.27 L97.74,-342.27 L98.18,-342.27 L98.62,-342.27 L99.06,-342.27 L99.50,-342.27 L99.94,-342.27 L100.38,-342.27 L100.82,-342.27 L101.26,-342.27 L101.70,-342.27 L102.14,-342.27 L102.58,-342.27 L103.02,-342.27 L103.46,-342.27 L103.90,-342.27 L104.34,-342.27 L104.78,-342.27 L105.22,-342.27 L105.66,-342.27 L106.10,-342.27 L106.54,-342.27 L106.98,-342.27 L107.42,-342.27 L107.86,-342.27 L108.30,-342.27 L108.74,-342.27 L109.18,-342.27 L109.62,-342.27 L110.06,-342.27 L110.50,-342.27 L110.94,-342.27 L111.38,-342.27 L111.82,-342.27 L112.26,-342.27 L112.70,-342.27 L113.14,-342.27 L113.58,-342.27 L114.02,-342.27 L114.46,-342.27 L114.90,-342.27 L115.34,-342.27 L115.78,-342.27 L116.22,-342.27 L116.66,-342.27 L117.10,-342.27 L117.54,-342.27 L117.97,-342.27 L118.41,-342.27 L118.85,-342.27 L119.29,-342.27 L119.73,-342.27 L120.17,-342.27 L120.61,-342.27 L121.05,-342.27 L121.49,-342.27 L121.93,-342.27 L122.37,-342.27 L122.81,-342.27 L123.25,-342.27 L123.69,-342.27 L124.13,-342.27 L124.57,-342.27 L125.01,-342.27 L125.45,-342.27 L125.89,-342.27 L126.33,-342.27 L126.77,-342.27 L127.21,-342.27 L127.65,-342.27 L128.09,-342.27 L128.53,-342.27 L128.97,-342.27 L129.41,-342.27 L129.85,-342.27 L130.29,-342.27 L130.73,-342.27 L131.17,-342.27 L131.61,-342.27 L132.05,-342.27 L132.49,-342.27 L132.93,-342.27 L133.37,-342.27 L133.81,-342.27 L134.25,-342.27 L134.69,-342.27 L135.13,-342.27 L135.57,-342.27 L136.01,-342.27 L136.45,-342.27 L136.89,-342.27 L137.33,-342.27 L137.77,-342.27 L138.21,-342.27 L138.65,-342.27 L139.09,-342.27 L139.53,-342.27 L139.97,-342.27 L140.41,-342.27 L140.85,-342.27 L141.29,-342.27 L141.73,-342.27 L142.17,-342.27 L142.61,-342.27 L143.05,-342.27 L143.49,-342.27 L143.93,-342.27 L144.37,-342.27 L144.81,-342.27 L145.25,-342.27 L145.69,-342.27 L146.13,-342.27 L146.57,-342.27 L147.01,-342.27 L147.45,-342.27 L147.88,-342.27 L148.32,-342.27 L148.76,-342.27 L149.20,-342.27 L149.64,-342.27 L150.08,-342.27 L150.52,-342.27 L150.96,-342.27 L151.40,-342.27 L151.84,-342.27 L152.28,-342.27 L152.72,-342.27 L153.16,-342.27 L153.60,-342.27 L154.04,-342.27 L154.48,-342.27 L154.92,-342.27 L155.36,-342.27 L155.80,-342.27 L156.24,-342.27 L156.68,-342.27 L157.12,-342.27 L157.56,-342.27 L158.00,-342.27 L158.44,-342.27 L158.88,-342.27 L159.32,-342.27 L159.76,-342.27 L160.20,-342.27 L160.64,-342.27 L161.08,-342.27 L161.52,-342.27 L161.96,-342.27 L162.40,-342.27 L162.84,-342.27 L163.28,-342.27 L163.72,-342.27 L164.16,-342.27 L164.60,-342.27 L165.04,-342.27 L165.48,-342.27 L165.92,-342.27 L166.36,-342.27 L166.80,-342.27 L167.24,-342.27 L167.68,-342.27 L168.12,-342.27 L168.56,-342.27 L169.00,-342.27 L169.44,-342.27 L169.88,-342.27 L170.32,-342.27 L170.76,-342.27 L171.20,-342.27 L171.64,-342.27 L172.08,-342.27 L172.52,-342.27 L172.96,-342.27 L173.40,-342.27 L173.84,-342.27 L174.28,-342.27 L174.72,-342.27 L175.16,-342.27 L175.60,-342.27 L176.04,-342.27 L176.48,-342.27 L176.92,-342.27 L177.36,-342.27 L177.79,-342.27 L178.23,-342.27 L178.67,-342.27 L179.11,-342.27 L179.55,-342.27 L179.99,-342.27 L180.43,-342.27 L180.87,-342.27 L181.31,-342.27 L181.75,-342.27 L182.19,-342.27 L182.63,-342.27 L183.07,-342.27 L183.51,-342.27 L183.95,-342.27 L184.39,-342.27 L184.83,-334.98 L185.27,-319.42 L185.71,-304.31 L186.15,-289.63 L186.59,-275.36 L187.03,-261.50 L187.47,-248.03 L187.91,-234.94 L188.35,-222.22 L188.79,-209.85 L189.23,-197.82 L189.67,-186.12 L190.11,-174.75 L190.55,-163.68 L190.99,-152.92 L191.43,-142.45 L191.87,-132.27 L192.31,-122.36 L192.75,-112.71 L193.19,-103.33 L193.63,-94.19 L194.07,-85.30 L194.51,-76.64 L194.95,-68.21 L195.39,-60.00 L195.83,-52.01 L196.27,-44.22 L196.71,-36.64 L197.15,-29.25 L197.59,-22.06 L198.03,-15.05 L198.47,-8.21 L198.91,-1.56 L199.35,4.93 L199.79,11.26 L200.23,17.42 L200.67,23.43 L201.11,29.29 L201.55,35.00 L201.99,40.58 L202.43,46.01 L202.87,51.31 L203.31,56.48 L203.75,61.52 L204.19,66.44 L204.63,71.23 L205.07,75.92 L205.51,80.49 L205.95,84.95 L206.39,89.30 L206.83,93.55 L207.27,97.69 L207.70,101.74 L208.14,105.69 L208.58,109.55 L209.02,113.32 L209.46,117.00 L209.90,120.59 L210.34,124.10 L210.78,127.53 L211.22,130.88 L211.66,134.15 L212.10,137.35 L212.54,140.47 L212.98,143.52 L213.42,146.51 L213.86,149.42 L214.30,152.27 L214.74,155.05 L215.18,157.78 L215.62,160.44 L216.06,163.04 L216.50,165.58 L216.94,168.07 L217.38,170.50 L217.82,172.88 L218.26,175.21 L218.70,177.48 L219.14,179.71 L219.58,181.89 L220.02,184.02 L220.46,186.10 L220.90,188.14 L221.34,190.14 L221.78,192.09 L222.22,194.00 L222.66,195.87 L223.10,197.70 L223.54,199.49 L223.98,201.25 L224.42,202.96 L224.86,204.64 L225.30,206.29 L225.74,207.90 L226.18,209.48 L226.62,211.02 L227.06,212.54 L227.50,214.02 L227.94,215.47 L228.38,216.89 L228.82,218.28 L229.26,219.65 L229.70,220.98 L230.14,222.29 L230.58,223.58 L231.02,224.83 L231.46,226.07 L231.90,227.27 L232.34,228.46 L232.78,229.62 L233.22,230.75 L233.66,231.87 L234.10,232.96 L234.54,234.03 L234.98,235.08 L235.42,236.11 L235.86,237.12 L236.30,238.11 L236.74,239.08 L237.18,240.03 L237.62,240.96 L238.05,241.87 L238.49,242.77 L238.93,243.65 L239.37,244.51 L239.81,245.36 L240.25,246.19 L240.69,247.01 L241.13,247.81 L241.57,248.59 L242.01,249.36 L242.45,250.12 L242.89,250.86 L243.33,251.59 L243.77,252.30 L244.21,253.00 L244.65,253.69 L245.09,254.36 L245.53,255.03 L245.97,255.68 L246.41,256.32 L246.85,256.94 L247.29,257.56 L247.73,258.16 L248.17,258.76 L248.61,259.34 L249.05,259.91 L249.49,260.47 L249.93,261.02 L250.37,261.57 L250.81,262.10 L251.25,262.62 L251.69,263.13 L252.13,263.64 L252.57,264.13 L253.01,264.62 L253.45,265.10 L253.89,265.57 L254.33,266.03 L254.77,266.48 L255.21,266.93 L255.65,267.37 L256.09,267.80 L256.53,268.22 L256.97,268.64 L257.41,269.05 L257.85,269.45 L258.29,269.84 L258.73,270.23 L259.17,270.61 L259.61,270.99 L260.05,271.36 L260.49,271.72 L260.93,272.07 L261.37,272.42 L261.81,272.77 L262.25,273.11 L262.69,273.44 L263.13,273.77 L263.57,274.09 L264.01,274.41 L264.45,274.72 L264.89,275.02 L265.33,275.33 L265.77,275.62 L266.21,275.91 L266.65,276.20 L267.09,276.48 L267.53,276.76 L267.96,277.03 L268.40,277.30 L268.84,277.56 L269.28,277.82 L269.72,278.08 L270.16,278.33 L270.60,278.58 L271.04,278.82 L271.48,279.06 L271.92,279.30 L272.36,279.53 L272.80,279.76 L273.24,279.98 L273.68,280.21 L274.12,280.42 L274.56,280.64 L275.00,280.85 L275.44,281.06 L275.88,281.26 L276.32,281.46 L276.76,281.66 L277.20,281.86 L277.64,282.05 L278.08,282.24 L278.52,282.43 L278.96,282.61 L279.40,282.79 L279.84,282.97 L280.28,283.14 L280.72,283.32 L281.16,283.49 L281.60,283.65 L282.04,283.82 L282.48,283.98 L282.92,284.14 L283.36,284.30 L283.80,284.45 L284.24,284.61 L284.68,284.76 L285.12,284.90 L285.56,285.05 L286.00,285.19 L286.44,285.34 L286.88,285.48 L287.32,285.61 L287.76,285.75 L288.20,285.88 L288.64,286.01 L289.08,286.14 L289.52,286.27 L289.96,286.40 L290.40,286.52 L290.84,286.64 L291.28,286.77 L291.72,286.88 L292.16,287.00 L292.60,287.12 L293.04,287.23 L293.48,287.34 L293.92,287.45 L294.36,287.56 L294.80,287.67 L295.24,287.78 L295.68,287.88 L296.12,287.98 L296.56,288.09 L297.00,288.19 L297.44,288.28 L297.87,288.38 L298.31,288.48 L298.75,288.57 L299.19,288.67 L299.63,288.76 L300.07,288.85 L300.51,288.94 L300.95,289.03 L301.39,289.11 L301.83,289.20 L302.27,289.28 L302.71,289.37 L303.15,289.45 L303.59,289.53 L304.03,289.61 L304.47,289.69 L304.91,289.77 L305.35,289.84 L305.79,289.92 L306.23,290.00 L306.67,290.07 L307.11,290.14 L307.55,290.21 L307.99,290.28 L308.43,290.35 L308.87,290.42 L309.31,290.49 L309.75,290.56 L310.19,290.63 L310.63,290.69 L311.07,290.76 L311.51,290.82 L311.95,290.88 L312.39,290.94 L312.83,291.01 L313.27,291.07 L313.71,291.13 L314.15,291.18 L314.59,291.24 L315.03,291.30 L315.47,291.36 L315.91,291.41 L316.35,291.47 L316.79,291.52 L317.23,291.58 L317.67,291.63 L318.11,291.68 L318.55,291.73 L318.99,291.78 L319.43,291.83 L319.87,291.88 L320.31,291.93 L320.75,291.98 L321.19,292.03 L321.63,292.08 L322.07,292.12 L322.51,292.17 L322.95,292.21 L323.39,292.26 L323.83,292.30 L324.27,292.35 L324.71,292.39 L325.15,292.43 L325.59,292.48 L326.03,292.52 L326.47,292.56 L326.91,292.60 L327.35,292.64 L327.78,292.68 L328.22,292.72 L328.66,292.76 L329.10,292.79 L329.54,292.83 L329.98,292.87 L330.42,292.91 L330.86,292.94 L331.30,292.98 L331.74,293.01 L332.18,293.05 L332.62,293.08 L333.06,293.12 L333.50,293.15 L333.94,293.19 L334.38,293.22 L334.82,293.25 L335.26,293.28 L335.70,293.31 L336.14,293.35 L336.58,293.38 L337.02,293.41 L337.46,293.44 L337.90,293.47 L338.34,293.50 L338.78,293.53 L339.22,293.56 L339.66,293.58 L340.10,293.61 L340.54,293.64 L340.98,293.67 L341.42,293.70 L341.86,293.72 L342.30,293.75 L342.74,293.78 L343.18,293.80 L343.62,293.83 L344.06,293.85 L344.50,293.88 L344.94,293.90 L345.38,293.93 L345.82,293.95 L346.26,293.98 L346.70,294.00 L347.14,294.02 L347.58,294.05 L348.02,294.07 L348.46,294.09 L348.90,294.11 L349.34,294.14 L349.78,294.16 L350.22,294.18 L350.66,294.20 L351.10,294.22 L351.54,294.24 L351.98,294.26 L352.42,294.28 L352.86,294.30 L353.30,294.32 L353.74,294.34 L354.18,294.36 L354.62,294.38 L355.06,294.40 L355.50,294.42 L355.94,294.44 L356.38,294.46 L356.82,294.48 L357.26,294.49 L357.69,294.51 L358.13,294.53 L358.57,294.55 L359.01,294.56 L359.45,294.58 L359.89,294.60 L360.33,294.62 L360.77,294.63 L361.21,294.65 L361.65,294.66 L362.09,294.68 L362.53,294.70 L362.97,294.71 L363.41,294.73 L363.85,294.74 L364.29,294.76 L364.73,294.77 L365.17,294.79 L365.61,294.80 L366.05,294.82 L366.49,294.83 L366.93,294.85 L367.37,294.86 L367.81,294.87 L368.25,294.89 L368.69,294.90 L369.13,294.91 L369.57,294.93 L370.01,294.94 L370.45,294.95 L370.89,294.97 L371.33,294.98 L371.77,294.99 L372.21,295.00 L372.65,295.02 L373.09,295.03 L373.53,295.04 L373.97,295.05 L374.41,295.07 L374.85,295.08 L375.29,295.09 L375.73,295.10 L376.17,295.11 L376.61,295.12 L377.05,295.13 L377.49,295.15 L377.93,295.16 L378.37,295.17 L378.81,295.18 L379.25,295.19 L379.69,295.20 L380.13,295.21 L380.57,295.22 L381.01,295.23 L381.45,295.24 L381.89,295.25 L382.33,295.26 L382.77,295.27 L383.21,295.28 L383.65,295.29 L384.09,295.30 L384.53,295.31 L384.97,295.32 L385.41,295.33 L385.85,295.34 L386.29,295.34 L386.73,295.35 L387.17,295.36 L387.61,295.37 L388.04,295.38 L388.48,295.39 L388.92,295.40 L389.36,295.40 L389.80,295.41 L390.24,295.42 L390.68,295.43 L391.12,295.44 L391.56,295.45 L392.00,295.45 L392.44,295.46 L392.88,295.47 L393.32,295.48 L393.76,295.48 L394.20,295.49 L394.64,295.50 L395.08,295.51 L395.52,295.51 L395.96,295.52 L396.40,295.53 L396.84,295.54 L397.28,295.54 L397.72,295.55 L398.16,295.56 L398.60,295.56 L399.04,295.57 L399.48,295.58 L399.92,295.58 L400.36,295.59 L400.80,295.60 L401.24,295.60 L401.68,295.61 L402.12,295.62 L402.56,295.62 L403.00,295.63 L403.44,295.63 L403.88,295.64 L404.32,295.65 L404.76,295.65 L405.20,295.66 L405.64,295.66 L406.08,295.67 L406.52,295.68 L406.96,295.68 L407.40,295.69 L407.84,295.69 L408.28,295.70 L408.72,295.70 L409.16,295.71 L409.60,295.71 L410.04,295.72 L410.48,295.73 L410.92,295.73 L411.36,295.74 L411.80,295.74 L412.24,295.75 L412.68,295.75 L413.12,295.76 L413.56,295.76 L414.00,295.77 L414.44,295.77 L414.88,295.78 L415.32,295.78 L415.76,295.79 L416.20,295.79 L416.64,295.79 L417.08,295.80 L417.52,295.80 L417.95,295.81 L418.39,295.81 L418.83,295.82 L419.27,295.82 L419.71,295.83 L420.15,295.83 L420.59,295.83 L421.03,295.84 L421.47,295.84 L421.91,295.85 L422.35,295.85 L422.79,295.86 L423.23,295.86 L423.67,295.86 L424.11,295.87 L424.55,295.87 L424.99,295.88 L425.43,295.88 L425.87,295.88 L426.31,295.89 L426.75,295.89 L427.19,295.89 L427.63,295.90 L428.07,295.90 L428.51,295.91 L428.95,295.91 L429.39,295.91 L429.83,295.92 L430.27,295.92 L430.71,295.92 L431.15,295.93 L431.59,295.93 L432.03,295.93 L432.47,295.94 L432.91,295.94 L433.35,295.94 L433.79,295.95 L434.23,295.95 L434.67,295.95 L435.11,295.96 L435.55,295.96 L435.99,295.96 L436.43,295.97 L436.87,295.97 L437.31,295.97 L437.75,295.98 L438.19,295.98 L438.63,295.98 L439.07,295.98 L439.51,295.99 L439.95,295.99 L440.39,295.99 L440.83,296.00 L441.27,296.00 L441.71,296.00 L442.15,296.00 L442.59,296.01 L443.03,296.01 L443.47,296.01 L443.91,296.02 L444.35,296.02 L444.79,296.02 L445.23,296.02 L445.67,296.03 L446.11,296.03 L446.55,296.03 L446.99,296.03 L447.43,296.04 L447.86,296.04 L448.30,296.04 L448.74,296.04 L449.18,296.05 L449.62,296.05 L450.06,296.05 L450.50,296.05 L450.94,296.06 L451.38,296.06 L451.82,296.06 L452.26,296.06 L452.70,296.07 L453.14,296.07 L453.58,296.07 L454.02,296.07 L454.46,296.07 L454.90,296.08 L455.34,296.08 L455.78,296.08 L456.22,296.08 L456.66,296.09 L457.10,296.09 L457.54,296.09 L457.98,296.09 L458.42,296.09 L458.86,296.10 L459.30,296.10 L459.74,296.10 L460.18,296.10 L460.62,296.10 L461.06,296.11 L461.50,296.11 L461.94,296.11 L462.38,296.11 L462.82,296.11 L463.26,296.11 L463.70,296.12 L464.14,296.12 L464.58,296.12 L465.02,296.12 L465.46,296.12 L465.90,296.13 L466.34,296.13 L466.78,296.13 L467.22,296.13 L467.66,296.13 L468.10,296.13 L468.54,296.14 L468.98,296.14 L469.42,296.14 L469.86,296.14 L470.30,296.14 L470.74,296.14 L471.18,296.15 L471.62,296.15 L472.06,296.15 L472.50,296.15 L472.94,296.15 L473.38,296.15 L473.82,296.16 L474.26,296.16 L474.70,296.16 L475.14,296.16 L475.58,296.16 L476.02,296.16 L476.46,296.16 L476.90,296.17 L477.34,296.17 L477.77,296.17 L478.21,296.17 L478.65,296.17 L479.09,296.17 L479.53,296.18 L479.97,296.18 L480.41,296.18 L480.85,296.18 L481.29,296.18 L481.73,296.18 L482.17,296.18 L482.61,296.18 L483.05,296.19 L483.49,296.19 L483.93,296.19 L484.37,296.19 L484.81,296.19 L485.25,296.19 L485.69,296.19 L486.13,296.19 L486.57,296.20 L487.01,296.20 L487.45,296.20 L487.89,296.20 L488.33,296.20 L488.77,296.20 L489.21,296.20 L489.65,296.20 L490.09,296.21 L490.53,296.21 L490.97,296.21 L491.41,296.21 L491.85,296.21 L492.29,296.21 L492.73,296.21 L493.17,296.21 L493.61,296.21 L494.05,296.22 L494.49,296.22 L494.93,296.22 L495.37,296.22 L495.81,296.22 L496.25,296.22 L496.69,296.22 L497.13,296.22 L497.57,296.22 L498.01,296.23 L498.45,296.23 L498.89,296.23 L499.33,296.23 L499.77,296.23 L500.21,296.23 L500.65,296.23 L501.09,296.23 L501.53,296.23 L501.97,296.23 L502.41,296.24 L502.85,296.24 L503.29,296.24 L503.73,296.24 L504.17,296.24 L504.61,296.24 L505.05,296.24 L505.49,296.24 L505.93,296.24 L506.37,296.24 L506.81,296.24 L507.25,296.25 L507.68,296.25 L508.12,296.25 L508.56,296.25 L509.00,296.25 L509.44,296.25 L509.88,296.25 L510.32,296.25 L510.76,296.25 L511.20,296.25 L511.64,296.25 L512.08,296.25 L512.52,296.26 L512.96,296.26 L513.40,296.26 L513.84,296.26 L514.28,296.26 L514.72,296.26 L515.16,296.26 L515.60,296.26 L516.04,296.26 L516.48,296.26 L516.92,296.26 L517.36,296.26 L517.80,296.26 L518.24,296.27 L518.68,296.27 L519.12,296.27 L519.56,296.27 L520.00,296.27 L520.44,296.27 L520.88,296.27 L521.32,296.27 L521.76,296.27 L522.20,296.27 L522.64,296.27 L523.08,296.27 L523.52,296.27 L523.96,296.27 L524.40,296.28 L524.84,296.28 L525.28,296.28 L525.72,296.28 L526.16,296.28 L526.60,296.28 L527.04,296.28 L527.48,296.28 L527.92,296.28 L528.36,296.28 L528.80,296.28 L529.24,296.28 L529.68,296.28 L530.12,296.28 L530.56,296.28 L531.00,296.28 L531.44,296.29 L531.88,296.29 L532.32,296.29 L532.76,296.29 L533.20,296.29 L533.64,296.29 L534.08,296.29 L534.52,296.29 L534.96,296.29 L535.40,296.29 L535.84,296.29 L536.28,296.29 L536.72,296.29 L537.16,296.29 L537.60,296.29 L538.03,296.29 L538.47,296.29 L538.91,296.29 L539.35,296.30 L539.79,296.30 L540.23,296.30 L540.67,296.30 L541.11,296.30 L541.55,296.30 L541.99,296.30 L542.43,296.30 L542.87,296.30 L543.31,296.30 L543.75,296.30 L544.19,296.30 L544.63,296.30 L545.07,296.30 L545.51,296.30 L545.95,296.30 L546.39,296.30 L546.83,296.30 L547.27,296.30 L547.71,296.30 L548.15,296.31 L548.59,296.31 L549.03,296.31 L549.47,296.31 L549.91,296.31 L550.35,296.31 L550.79,296.31 L551.23,296.31 L551.67,296.31 L552.11,296.31 L552.55,296.31 L552.99,296.31 L553.43,296.31 L553.87,296.31 L554.31,296.31 L554.75,296.31 L555.19,296.31 L555.63,296.31 L556.07,296.31 L556.51,296.31 L556.95,296.31 L557.39,296.31 L557.83,296.31 L558.27,296.32 L558.71,296.32 L559.15,296.32 L559.59,296.32 L560.03,296.32 L560.47,296.32 L560.91,296.32 L561.35,296.32 L561.79,296.32 L562.23,296.32 L562.67,296.32" style="stroke-width: 2px; stroke: rgb(50, 65, 75); stroke-opacity: 0.8;"/></g></g><g class="test-xtl" style="font-family: &quot;Open Sans&quot;, verdana, arial, sans-serif;"/><rect class="real" x="1" y="1" width="560.6666666666667" height="340.2666819254556" style="fill: transparent; stroke: none;"/></g></g></g><g class="arrow-line"><path class="connection real" stroke-dasharray="" d="  M106.73,124.73 L106.73,133.28" style="stroke: rgb(0, 0, 0); stroke-width: 1px; fill: none; fill-opacity: 1;"/></g><g class="grouped-shape"><g class="composite-shape"><path class="real" d=" M72.44,227.88 C72.44,219.16 79.52,212.08 88.24,212.08 L135.64,212.08 C144.37,212.08 151.44,219.16 151.44,227.88 L151.44,277.78 C151.44,286.51 144.37,293.58 135.64,293.58 L88.24,293.58 C79.52,293.58 72.44,286.51 72.44,277.78 Z" style="stroke-width: 1px; stroke: rgb(0, 0, 0); fill: rgb(180, 160, 105); fill-opacity: 1;"/></g><g class="arrow-line"><path class="connection real" stroke-dasharray="" d="  M78.57,234.36 L116.57,234.36" style="stroke: rgb(0, 0, 0); stroke-width: 1px; fill: rgb(180, 160, 105); fill-opacity: 1;"/></g><g class="composite-shape"><path class="real" d=" M93.32,234.36 C93.32,232.01 95.22,230.11 97.57,230.11 C99.92,230.11 101.82,232.01 101.82,234.36 C101.82,236.71 99.92,238.61 97.57,238.61 C95.22,238.61 93.32,236.71 93.32,234.36 Z" style="stroke-width: 1px; stroke: rgb(0, 0, 0); fill: rgb(0, 0, 0); fill-opacity: 1;"/></g><g class="arrow-line"><path class="connection real" stroke-dasharray="" d="  M78.57,268.58 L116.57,268.58" style="stroke: rgb(0, 0, 0); stroke-width: 1px; fill: rgb(180, 160, 105); fill-opacity: 1;"/></g></g><g class="composite-shape"><path class="real" d=" M237.38,198.03 C237.38,187.84 245.64,179.58 255.82,179.58 L311.16,179.58 C321.35,179.58 329.61,187.84 329.61,198.03 L329.61,275.64 C329.61,285.82 321.35,294.08 311.16,294.08 L255.82,294.08 C245.64,294.08 237.38,285.82 237.38,275.64 Z" style="stroke-width: 1px; stroke: rgb(0, 0, 0); fill: rgb(180, 160, 105); fill-opacity: 1;"/></g><g class="arrow-line"><path class="connection real" stroke-dasharray="" d="  M243.5,234.36 L289.7,234.36" style="stroke: rgb(0, 0, 0); stroke-width: 1px; fill: rgb(180, 160, 105); fill-opacity: 1;"/></g><g class="composite-shape"><path class="real" d=" M258.1,192.36 C258.1,190.01 260.01,188.11 262.35,188.11 C264.7,188.11 266.6,190.01 266.6,192.36 C266.6,194.71 264.7,196.61 262.35,196.61 C260.01,196.61 258.1,194.71 258.1,192.36 Z" style="stroke-width: 1px; stroke: rgb(0, 0, 0); fill: rgb(0, 0, 0); fill-opacity: 1;"/></g><g class="arrow-line"><path class="connection real" stroke-dasharray="" d="  M243.5,268.58 L289.7,268.58" style="stroke: rgb(0, 0, 0); stroke-width: 1px; fill: rgb(180, 160, 105); fill-opacity: 1;"/></g><g class="grouped-shape"><g class="composite-shape"><path class="real" d=" M407.64,228.38 C407.64,219.66 414.72,212.58 423.44,212.58 L470.84,212.58 C479.57,212.58 486.64,219.66 486.64,228.38 L486.64,278.28 C486.64,287.01 479.57,294.08 470.84,294.08 L423.44,294.08 C414.72,294.08 407.64,287.01 407.64,278.28 Z" style="stroke-width: 1px; stroke: rgb(0, 0, 0); fill: rgb(180, 160, 105); fill-opacity: 1;"/></g><g class="arrow-line"><path class="connection real" stroke-dasharray="" d="  M413.77,234.86 L451.77,234.86" style="stroke: rgb(0, 0, 0); stroke-width: 1px; fill: rgb(180, 160, 105); fill-opacity: 1;"/></g><g class="composite-shape"><path class="real" d=" M428.52,234.86 C428.52,232.51 430.42,230.61 432.77,230.61 C435.12,230.61 437.02,232.51 437.02,234.86 C437.02,237.21 435.12,239.11 432.77,239.11 C430.42,239.11 428.52,237.21 428.52,234.86 Z" style="stroke-width: 1px; stroke: rgb(0, 0, 0); fill: rgb(0, 0, 0); fill-opacity: 1;"/></g><g class="arrow-line"><path class="connection real" stroke-dasharray="" d="  M413.77,269.08 L451.77,269.08" style="stroke: rgb(0, 0, 0); stroke-width: 1px; fill: rgb(180, 160, 105); fill-opacity: 1;"/></g></g><g class="arrow-line"><path class="connection real" stroke-dasharray="" d="  M106.44,212.58 C106.11,160.68 187.36,82.54 279.72,178.29" style="stroke: rgb(50, 65, 75); stroke-opacity: 1; stroke-width: 2px; fill: none; fill-opacity: 1;"/><g stroke="rgb(50,65,75)" stroke-opacity="1" transform="matrix(-0.6881013303402626,-0.7256146078904151,0.7256146078904151,-0.6881013303402626,281.1111111111111,179.74996948242188)" style="stroke: rgb(50, 65, 75); stroke-width: 2px;"><path d=" M14.21,-4.28 Q6.45,-0.59 0,0 Q6.45,0.59 14.21,4.28"/></g></g><g class="arrow-line"><path class="connection real" stroke-dasharray="" d="  M106.44,340 L281.11,339.75" style="stroke: rgb(50, 65, 75); stroke-opacity: 1; stroke-width: 2px; fill: none; fill-opacity: 1;"/><g stroke="rgb(50,65,75)" stroke-opacity="1" transform="matrix(-0.9999990252244151,0.0013962629479127803,-0.0013962629479127803,-0.9999990252244151,281.1111111111111,339.7499694824219)" style="stroke: rgb(50, 65, 75); stroke-width: 2px;"><path d=" M0,6.71 L0,-6.71"/></g><g stroke="rgb(50,65,75)" stroke-opacity="1" transform="matrix(-0.9999990252244151,0.0013962629479127803,-0.0013962629479127803,-0.9999990252244151,106.44444444444441,339.99999999999994)" style="stroke: rgb(50, 65, 75); stroke-width: 2px;"><path d=" M0,6.71 L0,-6.71"/></g></g><g class="arrow-line"><path class="connection real" stroke-dasharray="" d="  M244,212.58 L290.2,212.58" style="stroke: rgb(0, 0, 0); stroke-width: 1px; fill: rgb(180, 160, 105); fill-opacity: 1;"/></g><g class="arrow-line"><path class="connection real" stroke-dasharray="" d="  M243.5,192.36 L289.7,192.36" style="stroke: rgb(0, 0, 0); stroke-width: 1px; fill: rgb(180, 160, 105); fill-opacity: 1;"/></g><g class="arrow-line"><path class="connection real" stroke-dasharray="" d="  M255.82,234.86 L255.82,214.58" style="stroke: rgb(165, 30, 55); stroke-opacity: 1; stroke-width: 1px; fill: none; fill-opacity: 1;"/><g stroke="rgb(165,30,55)" stroke-opacity="1" transform="matrix(3.061616997868383e-16,1,-1,3.061616997868383e-16,255.82444444444442,212.58331298828125)" style="stroke: rgb(165, 30, 55); stroke-width: 1px;"><path d=" M10.93,-3.29 Q4.96,-0.45 0,0 Q4.96,0.45 10.93,3.29"/></g></g><g class="arrow-line"><path class="connection real" stroke-dasharray="" d="  M255.82,212.58 L255.82,194.3" style="stroke: rgb(50, 65, 75); stroke-opacity: 1; stroke-width: 1px; fill: none; fill-opacity: 1;"/><g stroke="rgb(50,65,75)" stroke-opacity="1" transform="matrix(3.061616997868383e-16,1,-1,3.061616997868383e-16,255.82444444444448,192.3006870435632)" style="stroke: rgb(50, 65, 75); stroke-width: 1px;"><path d=" M10.93,-3.29 Q4.96,-0.45 0,0 Q4.96,0.45 10.93,3.29"/></g></g><g class="arrow-line"><path class="connection real" stroke-dasharray="" d="  M446.44,212.58 C442.8,152.72 356.38,88.4 282.23,178.38" style="stroke: rgb(165, 0, 0); stroke-opacity: 1; stroke-width: 2px; fill: none; fill-opacity: 1;"/><g stroke="rgb(165,0,0)" stroke-opacity="1" transform="matrix(0.6287776875005135,-0.7775851205504813,0.7775851205504813,0.6287776875005135,281.1111111111111,179.74996948242188)" style="stroke: rgb(165, 0, 0); stroke-width: 2px;"><path d=" M14.21,-4.28 Q6.45,-0.59 0,0 Q6.45,0.59 14.21,4.28"/></g></g><g class="arrow-line"><path class="connection real" stroke-dasharray="" d="  M281.11,339.75 L447.36,339.58" style="stroke: rgb(165, 30, 55); stroke-opacity: 1; stroke-width: 2px; fill: none; fill-opacity: 1;"/><g stroke="rgb(165,30,55)" stroke-opacity="1" transform="matrix(-0.9999994516886945,0.0010471973598001408,-0.0010471973598001408,-0.9999994516886945,447.3611111111111,339.5833129882813)" style="stroke: rgb(165, 30, 55); stroke-width: 2px;"><path d=" M0,6.71 L0,-6.71"/></g><g stroke="rgb(165,30,55)" stroke-opacity="1" transform="matrix(-0.9999994516886945,0.0010471973598001408,-0.0010471973598001408,-0.9999994516886945,281.11111111111103,339.7499694824219)" style="stroke: rgb(165, 30, 55); stroke-width: 2px;"><path d=" M0,6.71 L0,-6.71"/></g></g><g/></g><g/><g/><g/></svg>
        <svg xmlns="http://www.w3.org/2000/svg" xmlns:xlink="http://www.w3.org/1999/xlink" width="660" height="373.33331298828125" style="width:660px;height:373.33331298828125px;font-family:Asana-Math, Asana;background:transparent;"><g><g><g><g><g><g><g><g><g><g transform="matrix(1,0,0,1,128.5166015625,241.28335571289062)"><path transform="matrix(0.017,0,0,-0.017,0,0)" d="M31 148C26 97 20 62 9 16C47 -2 81 -11 116 -11C165 -11 211 7 262 47C313 87 334 124 334 174C334 228 302 257 228 271L185 279C125 290 106 307 106 348C106 401 151 442 208 442C249 442 287 424 303 397L303 342L326 342C330 377 334 404 345 455C306 474 278 482 245 482C193 482 132 452 84 404C58 377 47 352 47 316C47 260 78 228 144 215L207 203C251 195 267 177 267 138C267 73 221 29 150 29C115 29 84 40 56 64L56 148Z" stroke="rgb(0,0,0)" stroke-opacity="1" stroke-width="0" fill="rgb(0,0,0)" fill-opacity="1"></path></g></g></g></g><svg x="122.566650390625" overflow="visible" y="225.78335571289062" height="20.399993896484375" width="4.25"><rect style="fill:rgb(0,0,0);fill-opacity:1;stroke-width:1px;stroke:none;stroke-opacity:1;" x="1.63" y="1.89" width="1" height="16.62"></rect></svg><svg x="135.11669921875" overflow="visible" y="225.78335571289062" height="20.399993896484375" width="9.349990844726562"><polyline points="1.87,1.89 7.46,10.20 1.87,18.51" style="fill:none;fill-opacity:1;stroke-width:1px;stroke:rgb(0,0,0);stroke-opacity:1;"></polyline></svg></g></g></g></g></g></g><g><g><g><g><g><g><g><g><g><g transform="matrix(1,0,0,1,128.5166015625,274.7833557128906)"><path transform="matrix(0.017,0,0,-0.017,0,0)" d="M275 482C208 482 55 419 55 259C55 182 100 136 177 136C185 136 196 136 207 137L166 99C150 84 139 66 139 52C139 42 146 31 160 19C91 -4 -37 -48 -37 -159C-37 -230 33 -276 142 -276C271 -276 384 -204 384 -121C384 -85 363 -49 320 -14L260 35C226 62 213 81 213 100C213 114 228 128 240 146C338 170 409 253 409 342C409 357 406 376 405 380C422 378 430 378 439 378C456 378 466 379 489 382L498 427L495 433C467 426 447 424 393 424C393 425 369 482 275 482ZM176 1L253 -58C299 -94 318 -121 318 -154C318 -206 249 -248 166 -248C84 -248 27 -206 27 -145C27 -43 137 -11 176 1ZM250 448C308 448 337 412 337 341C337 238 289 168 219 168C158 168 126 209 126 288C126 383 177 448 250 448Z" stroke="rgb(0,0,0)" stroke-opacity="1" stroke-width="0" fill="rgb(0,0,0)" fill-opacity="1"></path></g></g></g></g><svg x="122.566650390625" overflow="visible" y="259.2833557128906" height="20.399993896484375" width="4.25"><rect style="fill:rgb(0,0,0);fill-opacity:1;stroke-width:1px;stroke:none;stroke-opacity:1;" x="1.63" y="1.89" width="1" height="16.62"></rect></svg><svg x="137" overflow="visible" y="259.2833557128906" height="20.399993896484375" width="9.350006103515625"><polyline points="1.87,1.89 7.46,10.20 1.87,18.51" style="fill:none;fill-opacity:1;stroke-width:1px;stroke:rgb(0,0,0);stroke-opacity:1;"></polyline></svg></g></g></g></g></g></g><g><g><g><g><g><g><g><g><g><g transform="matrix(1,0,0,1,463.7166748046875,241.78335571289062)"><path transform="matrix(0.017,0,0,-0.017,0,0)" d="M31 148C26 97 20 62 9 16C47 -2 81 -11 116 -11C165 -11 211 7 262 47C313 87 334 124 334 174C334 228 302 257 228 271L185 279C125 290 106 307 106 348C106 401 151 442 208 442C249 442 287 424 303 397L303 342L326 342C330 377 334 404 345 455C306 474 278 482 245 482C193 482 132 452 84 404C58 377 47 352 47 316C47 260 78 228 144 215L207 203C251 195 267 177 267 138C267 73 221 29 150 29C115 29 84 40 56 64L56 148Z" stroke="rgb(0,0,0)" stroke-opacity="1" stroke-width="0" fill="rgb(0,0,0)" fill-opacity="1"></path></g></g></g></g><svg x="457.7666015625" overflow="visible" y="226.28335571289062" height="20.399993896484375" width="4.25"><rect style="fill:rgb(0,0,0);fill-opacity:1;stroke-width:1px;stroke:none;stroke-opacity:1;" x="1.63" y="1.89" width="1" height="16.62"></rect></svg><svg x="470.316650390625" overflow="visible" y="226.28335571289062" height="20.399993896484375" width="9.350006103515625"><polyline points="1.87,1.89 7.46,10.20 1.87,18.51" style="fill:none;fill-opacity:1;stroke-width:1px;stroke:rgb(0,0,0);stroke-opacity:1;"></polyline></svg></g></g></g></g></g></g><g><g><g><g><g><g><g><g><g><g transform="matrix(1,0,0,1,463.7166748046875,275.2833557128906)"><path transform="matrix(0.017,0,0,-0.017,0,0)" d="M275 482C208 482 55 419 55 259C55 182 100 136 177 136C185 136 196 136 207 137L166 99C150 84 139 66 139 52C139 42 146 31 160 19C91 -4 -37 -48 -37 -159C-37 -230 33 -276 142 -276C271 -276 384 -204 384 -121C384 -85 363 -49 320 -14L260 35C226 62 213 81 213 100C213 114 228 128 240 146C338 170 409 253 409 342C409 357 406 376 405 380C422 378 430 378 439 378C456 378 466 379 489 382L498 427L495 433C467 426 447 424 393 424C393 425 369 482 275 482ZM176 1L253 -58C299 -94 318 -121 318 -154C318 -206 249 -248 166 -248C84 -248 27 -206 27 -145C27 -43 137 -11 176 1ZM250 448C308 448 337 412 337 341C337 238 289 168 219 168C158 168 126 209 126 288C126 383 177 448 250 448Z" stroke="rgb(0,0,0)" stroke-opacity="1" stroke-width="0" fill="rgb(0,0,0)" fill-opacity="1"></path></g></g></g></g><svg x="457.7666015625" overflow="visible" y="259.7833557128906" height="20.399993896484375" width="4.25"><rect style="fill:rgb(0,0,0);fill-opacity:1;stroke-width:1px;stroke:none;stroke-opacity:1;" x="1.63" y="1.89" width="1" height="16.62"></rect></svg><svg x="472.199951171875" overflow="visible" y="259.7833557128906" height="20.399993896484375" width="9.350006103515625"><polyline points="1.87,1.89 7.46,10.20 1.87,18.51" style="fill:none;fill-opacity:1;stroke-width:1px;stroke:rgb(0,0,0);stroke-opacity:1;"></polyline></svg></g></g></g></g></g></g><g><g><g><g><g><g><g transform="matrix(1,0,0,1,142,63.1166748046875)"><path transform="matrix(0.020399999999999998,0,0,-0.020399999999999998,0,0)" d="M310 96L239 624C237 646 241 661 281 662L323 664L323 692L282 691C245 690 217 689 199 689C181 689 153 690 116 691L75 692L75 664L100 662C144 659 152 651 159 614L247 -8L296 -8L674 611C699 651 707 658 736 662L754 664L754 692L724 691C697 690 674 689 658 689C648 689 621 690 580 691L534 692L534 664L560 662C598 659 617 649 617 630C617 619 613 608 601 588Z" stroke="rgb(50,65,75)" stroke-opacity="1" stroke-width="0" fill="rgb(50,65,75)" fill-opacity="1"></path></g></g><g><g transform="matrix(1,0,0,1,162.8333740234375,63.1166748046875)"><path transform="matrix(0.020399999999999998,0,0,-0.020399999999999998,0,0)" d="M604 75L604 125C522 125 458 189 458 271C458 351 522 416 604 416L604 466C529 466 466 426 433 367C399 426 336 466 262 466C152 466 65 379 65 271C65 161 152 75 262 75C336 75 399 114 433 174C466 114 529 75 604 75ZM407 271C407 189 341 125 262 125C180 125 116 189 116 271C116 351 180 416 262 416C341 416 407 351 407 271Z" stroke="rgb(50,65,75)" stroke-opacity="1" stroke-width="0" fill="rgb(50,65,75)" fill-opacity="1"></path></g></g><g><g transform="matrix(1,0,0,1,182.5833740234375,63.1166748046875)"><path transform="matrix(0.020399999999999998,0,0,-0.020399999999999998,0,0)" d="M418 -3L418 27L366 30C311 33 301 44 301 96L301 700L60 598L67 548L217 614L217 96C217 44 206 33 152 30L96 27L96 -3C250 0 250 0 261 0C292 0 402 -3 418 -3Z" stroke="rgb(50,65,75)" stroke-opacity="1" stroke-width="0" fill="rgb(50,65,75)" fill-opacity="1"></path></g></g><g><g transform="matrix(1,0,0,1,196.8499755859375,63.1166748046875)"><path transform="matrix(0.020399999999999998,0,0,-0.020399999999999998,0,0)" d="M297 714L242 714L-37 -169L18 -169Z" stroke="rgb(50,65,75)" stroke-opacity="1" stroke-width="0" fill="rgb(50,65,75)" fill-opacity="1"></path></g></g><g><g transform="matrix(1,0,0,1,206.7666015625,63.1166748046875)"><path transform="matrix(0.020399999999999998,0,0,-0.020399999999999998,0,0)" d="M105 664L161 662C185 661 196 653 196 635C196 621 192 589 187 559L112 125C96 34 94 32 54 28L13 25L9 -3L51 -2C98 0 117 0 141 0L238 -3L264 -3L267 25L218 28C191 30 182 38 182 58C182 67 183 76 186 93L287 648C316 654 336 656 363 656C450 656 496 617 496 543C496 448 418 378 314 378L270 378L267 367C401 172 432 124 507 -3C507 -3 592 0 592 0C593 0 607 -1 626 -3L639 -3L639 24C599 29 588 37 559 79L375 354C430 364 459 376 495 402C553 444 584 499 584 560C584 646 520 693 409 691L108 691Z" stroke="rgb(50,65,75)" stroke-opacity="1" stroke-width="0" fill="rgb(50,65,75)" fill-opacity="1"></path></g></g><g><g><g><g><g transform="matrix(1,0,0,1,221.5333251953125,54.28)"><path transform="matrix(0.01428,0,0,-0.01428,0,0)" d="M131 331C152 512 241 611 421 665L379 689C283 657 242 637 191 593C88 506 32 384 32 247C32 82 112 -20 241 -20C371 -20 468 83 468 219C468 334 399 409 293 409C216 409 184 370 131 331ZM255 349C331 349 382 283 382 184C382 80 331 13 254 13C169 13 123 86 123 220C123 255 127 274 138 291C160 325 207 349 255 349Z" stroke="rgb(50,65,75)" stroke-opacity="1" stroke-width="0" fill="rgb(50,65,75)" fill-opacity="1"></path></g></g></g></g><g><g></g></g></g></g></g></g></g></g><g><g><g><g><g><g><g transform="matrix(1,0,0,1,189.11669921875,326.7833557128906)"><path transform="matrix(0.017,0,0,-0.017,0,0)" d="M105 664L161 662C185 661 196 653 196 635C196 621 192 589 187 559L112 125C96 34 94 32 54 28L13 25L9 -3L51 -2C98 0 117 0 141 0L238 -3L264 -3L267 25L218 28C191 30 182 38 182 58C182 67 183 76 186 93L287 648C316 654 336 656 363 656C450 656 496 617 496 543C496 448 418 378 314 378L270 378L267 367C401 172 432 124 507 -3C507 -3 592 0 592 0C593 0 607 -1 626 -3L639 -3L639 24C599 29 588 37 559 79L375 354C430 364 459 376 495 402C553 444 584 499 584 560C584 646 520 693 409 691L108 691Z" stroke="rgb(50,65,75)" stroke-opacity="1" stroke-width="0" fill="rgb(50,65,75)" fill-opacity="1"></path></g></g></g></g></g></g></g><g><g><g><g><g><g><g><g><g><g transform="matrix(1,0,0,1,305.316650390625,241.28335571289062)"><path transform="matrix(0.017,0,0,-0.017,0,0)" d="M31 148C26 97 20 62 9 16C47 -2 81 -11 116 -11C165 -11 211 7 262 47C313 87 334 124 334 174C334 228 302 257 228 271L185 279C125 290 106 307 106 348C106 401 151 442 208 442C249 442 287 424 303 397L303 342L326 342C330 377 334 404 345 455C306 474 278 482 245 482C193 482 132 452 84 404C58 377 47 352 47 316C47 260 78 228 144 215L207 203C251 195 267 177 267 138C267 73 221 29 150 29C115 29 84 40 56 64L56 148Z" stroke="rgb(0,0,0)" stroke-opacity="1" stroke-width="0" fill="rgb(0,0,0)" fill-opacity="1"></path></g></g></g></g><svg x="299.36669921875" overflow="visible" y="225.78335571289062" height="20.399993896484375" width="4.25"><rect style="fill:rgb(0,0,0);fill-opacity:1;stroke-width:1px;stroke:none;stroke-opacity:1;" x="1.63" y="1.89" width="1" height="16.62"></rect></svg><svg x="311.9166259765625" overflow="visible" y="225.78335571289062" height="20.399993896484375" width="9.349990844726562"><polyline points="1.87,1.89 7.46,10.20 1.87,18.51" style="fill:none;fill-opacity:1;stroke-width:1px;stroke:rgb(0,0,0);stroke-opacity:1;"></polyline></svg></g></g></g></g></g></g><g><g><g><g><g><g><g><g><g><g transform="matrix(1,0,0,1,305.5333251953125,274.7833557128906)"><path transform="matrix(0.017,0,0,-0.017,0,0)" d="M275 482C208 482 55 419 55 259C55 182 100 136 177 136C185 136 196 136 207 137L166 99C150 84 139 66 139 52C139 42 146 31 160 19C91 -4 -37 -48 -37 -159C-37 -230 33 -276 142 -276C271 -276 384 -204 384 -121C384 -85 363 -49 320 -14L260 35C226 62 213 81 213 100C213 114 228 128 240 146C338 170 409 253 409 342C409 357 406 376 405 380C422 378 430 378 439 378C456 378 466 379 489 382L498 427L495 433C467 426 447 424 393 424C393 425 369 482 275 482ZM176 1L253 -58C299 -94 318 -121 318 -154C318 -206 249 -248 166 -248C84 -248 27 -206 27 -145C27 -43 137 -11 176 1ZM250 448C308 448 337 412 337 341C337 238 289 168 219 168C158 168 126 209 126 288C126 383 177 448 250 448Z" stroke="rgb(0,0,0)" stroke-opacity="1" stroke-width="0" fill="rgb(0,0,0)" fill-opacity="1"></path></g></g></g></g><svg x="299.5833740234375" overflow="visible" y="259.2833557128906" height="20.399993896484375" width="4.25"><rect style="fill:rgb(0,0,0);fill-opacity:1;stroke-width:1px;stroke:none;stroke-opacity:1;" x="1.63" y="1.89" width="1" height="16.62"></rect></svg><svg x="314.0166015625" overflow="visible" y="259.2833557128906" height="20.399993896484375" width="9.350006103515625"><polyline points="1.87,1.89 7.46,10.20 1.87,18.51" style="fill:none;fill-opacity:1;stroke-width:1px;stroke:rgb(0,0,0);stroke-opacity:1;"></polyline></svg></g></g></g></g></g></g><g><g><g><g><g><g><g transform="matrix(1,0,0,1,281.5833740234375,210.06668090820312)"><path transform="matrix(0.017,0,0,-0.017,0,0)" d="M310 96L239 624C237 646 241 661 281 662L323 664L323 692L282 691C245 690 217 689 199 689C181 689 153 690 116 691L75 692L75 664L100 662C144 659 152 651 159 614L247 -8L296 -8L674 611C699 651 707 658 736 662L754 664L754 692L724 691C697 690 674 689 658 689C648 689 621 690 580 691L534 692L534 664L560 662C598 659 617 649 617 630C617 619 613 608 601 588Z" stroke="rgb(50,65,75)" stroke-opacity="1" stroke-width="0" fill="rgb(50,65,75)" fill-opacity="1"></path></g></g></g></g></g></g></g><g><g><g><g><g><g><g transform="matrix(1,0,0,1,280.63330078125,231.78335571289062)"><path transform="matrix(0.017,0,0,-0.017,0,0)" d="M310 96L239 624C237 646 241 661 281 662L323 664L323 692L282 691C245 690 217 689 199 689C181 689 153 690 116 691L75 692L75 664L100 662C144 659 152 651 159 614L247 -8L296 -8L674 611C699 651 707 658 736 662L754 664L754 692L724 691C697 690 674 689 658 689C648 689 621 690 580 691L534 692L534 664L560 662C598 659 617 649 617 630C617 619 613 608 601 588Z" stroke="rgb(165,30,55)" stroke-opacity="1" stroke-width="0" fill="rgb(165,30,55)" fill-opacity="1"></path></g></g></g></g></g></g></g><g><g><g><g><g><g><g transform="matrix(1,0,0,1,355.11669921875,322.7833557128906)"><path transform="matrix(0.017,0,0,-0.017,0,0)" d="M105 664L161 662C185 661 196 653 196 635C196 621 192 589 187 559L112 125C96 34 94 32 54 28L13 25L9 -3L51 -2C98 0 117 0 141 0L238 -3L264 -3L267 25L218 28C191 30 182 38 182 58C182 67 183 76 186 93L287 648C316 654 336 656 363 656C450 656 496 617 496 543C496 448 418 378 314 378L270 378L267 367C401 172 432 124 507 -3C507 -3 592 0 592 0C593 0 607 -1 626 -3L639 -3L639 24C599 29 588 37 559 79L375 354C430 364 459 376 495 402C553 444 584 499 584 560C584 646 520 693 409 691L108 691Z" stroke="rgb(165,30,55)" stroke-opacity="1" stroke-width="0" fill="rgb(165,30,55)" fill-opacity="1"></path></g></g></g></g></g></g></g></svg>
</svg>
