<svg xmlns="http://www.w3.org/2000/svg" xmlns:xlink="http://www.w3.org/1999/xlink" x="0" y="0" width="662" height="348.33331298828125" style="
        width:662px;
        height:348.33331298828125px;
        background: transparent;
        fill: none;
">
        
        
        <svg xmlns="http://www.w3.org/2000/svg" class="role-diagram-draw-area"><g class="shapes-region" style="stroke: black; fill: none;"><g class="grouped-shape"><g class="composite-shape"><path class="real" d=" M294.02,120.4 C286.26,104.66 308.73,78.35 344.2,61.63 C379.67,44.92 414.71,44.13 422.47,59.88 C430.23,75.62 407.76,101.94 372.29,118.65 C336.82,135.36 301.78,136.15 294.02,120.4 Z" style="stroke-width: 1px; stroke: rgb(180, 160, 105); stroke-opacity: 1; fill: rgb(180, 160, 105); fill-opacity: 1;"/></g><g class="composite-shape"><path class="real" d=" M312.03,99.97 C312.03,88.81 321.67,79.75 333.56,79.75 C345.46,79.75 355.1,88.81 355.1,99.97 C355.1,111.14 345.46,120.19 333.56,120.19 C321.67,120.19 312.03,111.14 312.03,99.97 Z" style="stroke-width: 1px; stroke: rgb(165, 30, 55); stroke-opacity: 1; fill: rgb(165, 30, 55); fill-opacity: 1;"/></g><g class="composite-shape"><path class="real" d=" M386.62,76.89 C386.62,72.14 390.56,68.3 395.41,68.3 C400.26,68.3 404.2,72.14 404.2,76.89 C404.2,81.64 400.26,85.48 395.41,85.48 C390.56,85.48 386.62,81.64 386.62,76.89 Z" style="stroke-width: 1px; stroke: rgb(0, 105, 170); stroke-opacity: 1; fill: rgb(0, 105, 170); fill-opacity: 1;"/></g><g class="arrow-line"><path class="connection real" stroke-dasharray="" d="  M354.41,93.57 L384.85,77.81" style="stroke: rgb(0, 0, 0); stroke-width: 1px; fill: none; fill-opacity: 1;"/><g stroke="#000" transform="matrix(-0.8880562234694231,0.45973486267328695,-0.45973486267328695,-0.8880562234694231,386.6245089665489,76.88986611968272)" style="stroke: rgb(0, 0, 0); stroke-width: 1px;"><path d=" M10.93,-3.29 Q4.96,-0.45 0,0 Q4.96,0.45 10.93,3.29"/></g></g></g><g class="composite-shape axis2d" style="stroke-width: 2px; stroke: rgb(0, 0, 0);"><path class="real" d=" M40,300.58 L136.09,300.58 M49.61,209.8 L49.61,310.67"/><path d=" M129.09,295.58 L136.09,300.58 L129.09,305.58"/><path d=" M44.61,216.8 L49.61,209.8 L54.61,216.8"/></g><g class="arrow-line"><path class="connection real" stroke-dasharray="" d="  M49.61,300.58 L291.61,122.18" style="stroke: rgb(0, 0, 0); stroke-width: 2px; fill: none; fill-opacity: 1;"/><g stroke="#000" transform="matrix(-0.8048937973559142,0.5934188866037013,-0.5934188866037013,-0.8048937973559142,294.02067813782736,120.40270284091753)" style="stroke: rgb(0, 0, 0); stroke-width: 2px;"><path d=" M19.89,-5.99 Q9.03,-0.82 0,0 Q9.03,0.82 19.89,5.99"/></g></g><g class="arrow-line"><path class="connection real" stroke-dasharray="" d="  M49.61,300.58 L525.04,224.14" style="stroke: rgb(0, 0, 0); stroke-width: 2px; fill: none; fill-opacity: 1;"/><g stroke="#000" transform="matrix(-0.9873308600317822,0.15867505421111835,-0.15867505421111835,-0.9873308600317822,528.0000000000001,223.66668701171875)" style="stroke: rgb(0, 0, 0); stroke-width: 2px;"><path d=" M19.89,-5.99 Q9.03,-0.82 0,0 Q9.03,0.82 19.89,5.99"/></g></g><g class="grouped-shape"><g class="composite-shape"><path class="real" d=" M586.97,102.84 C602.25,109.47 602.14,142.3 586.73,176.15 C571.32,210 546.45,232.07 531.18,225.44 C515.91,218.81 516.02,185.99 531.42,152.14 C546.83,118.28 571.7,96.21 586.97,102.84 Z" style="stroke-width: 1px; stroke: rgb(180, 160, 105); stroke-opacity: 1; fill: rgb(180, 160, 105); fill-opacity: 1;"/></g><g class="composite-shape"><path class="real" d=" M526.67,188.53 C526.67,177.94 535.81,169.35 547.1,169.35 C558.38,169.35 567.53,177.94 567.53,188.53 C567.53,199.12 558.38,207.71 547.1,207.71 C535.81,207.71 526.67,199.12 526.67,188.53 Z" style="stroke-width: 1px; stroke: rgb(165, 30, 55); stroke-opacity: 1; fill: rgb(165, 30, 55); fill-opacity: 1;"/></g><g class="composite-shape"><path class="real" d=" M567.91,127.7 C567.91,123.2 571.65,119.55 576.25,119.55 C580.85,119.55 584.58,123.2 584.58,127.7 C584.58,132.2 580.85,135.85 576.25,135.85 C571.65,135.85 567.91,132.2 567.91,127.7 Z" style="stroke-width: 1px; stroke: rgb(0, 105, 170); stroke-opacity: 1; fill: rgb(0, 105, 170); fill-opacity: 1;"/></g><g class="arrow-line"><path class="connection real" stroke-dasharray="" d="  M557.13,171.95 L571.69,137.76" style="stroke: rgb(0, 0, 0); stroke-width: 1px; fill: none; fill-opacity: 1;"/><g stroke="#000" transform="matrix(-0.3916948644991965,0.920095176123077,-0.920095176123077,-0.3916948644991965,572.4697159910647,135.92484438940153)" style="stroke: rgb(0, 0, 0); stroke-width: 1px;"><path d=" M10.93,-3.29 Q4.96,-0.45 0,0 Q4.96,0.45 10.93,3.29"/></g></g></g><g/></g><g/><g/><g/></svg>
        <svg xmlns="http://www.w3.org/2000/svg" xmlns:xlink="http://www.w3.org/1999/xlink" width="660" height="346.33331298828125" style="width:660px;height:346.33331298828125px;font-family:Asana-Math, Asana;background:transparent;"><g><g><g><g><g><g><g transform="matrix(1,0,0,1,140.63330078125,199.710048828125)"><path transform="matrix(0.02941,0,0,-0.02941,0,0)" d="M105 664L161 662C185 661 196 653 196 635C196 621 192 589 187 559L112 125C96 34 94 32 54 28L13 25L9 -3L51 -2C98 0 117 0 141 0L238 -3L264 -3L267 25L218 28C191 30 182 38 182 58C182 67 183 76 186 93L287 648C316 654 336 656 363 656C450 656 496 617 496 543C496 448 418 378 314 378L270 378L267 367C401 172 432 124 507 -3C507 -3 592 0 592 0C593 0 607 -1 626 -3L639 -3L639 24C599 29 588 37 559 79L375 354C430 364 459 376 495 402C553 444 584 499 584 560C584 646 520 693 409 691L108 691Z" stroke="rgb(0,0,0)" stroke-opacity="1" stroke-width="0" fill="rgb(0,0,0)" fill-opacity="1"></path></g></g><g><g><g><g><g transform="matrix(1,0,0,1,161.0999755859375,204.7536259765625)"><path transform="matrix(0.020587,0,0,-0.020587,0,0)" d="M34 388L41 368L73 389C110 412 113 414 120 414C130 414 138 404 138 391C138 384 134 361 130 347L64 107C56 76 51 49 51 30C51 6 62 -9 81 -9C107 -9 143 12 241 85L231 103L205 86C176 67 153 56 144 56C137 56 131 66 131 76C131 86 133 95 138 116L215 420C219 437 221 448 221 456C221 473 212 482 196 482C174 482 137 461 62 408ZM228 712C199 712 170 679 170 645C170 620 185 604 209 604C240 604 264 633 264 671C264 695 249 712 228 712Z" stroke="rgb(0,0,0)" stroke-opacity="1" stroke-width="0" fill="rgb(0,0,0)" fill-opacity="1"></path></g></g></g></g></g></g></g></g></g></g><g><g><g><g><g><g><g transform="matrix(1,0,0,1,319.550048828125,237.726650390625)"><path transform="matrix(0.02941,0,0,-0.02941,0,0)" d="M105 664L161 662C185 661 196 653 196 635C196 621 192 589 187 559L112 125C96 34 94 32 54 28L13 25L9 -3L51 -2C98 0 117 0 141 0L238 -3L264 -3L267 25L218 28C191 30 182 38 182 58C182 67 183 76 186 93L287 648C316 654 336 656 363 656C450 656 496 617 496 543C496 448 418 378 314 378L270 378L267 367C401 172 432 124 507 -3C507 -3 592 0 592 0C593 0 607 -1 626 -3L639 -3L639 24C599 29 588 37 559 79L375 354C430 364 459 376 495 402C553 444 584 499 584 560C584 646 520 693 409 691L108 691Z" stroke="rgb(0,0,0)" stroke-opacity="1" stroke-width="0" fill="rgb(0,0,0)" fill-opacity="1"></path></g></g><g><g><g><g><g transform="matrix(1,0,0,1,340.0166015625,242.770349609375)"><path transform="matrix(0.020587,0,0,-0.020587,0,0)" d="M194 351L94 -144C83 -196 65 -231 47 -231C33 -231 15 -225 -6 -212L-14 -269C-4 -274 9 -276 24 -276C64 -276 104 -233 140 -152C160 -107 174 -57 202 70L278 420C282 438 284 451 284 457C284 473 275 482 259 482C237 482 200 461 125 408L97 388L104 368L136 389C173 412 176 414 183 414C193 414 201 404 201 391C201 382 194 356 194 351ZM285 712C256 712 227 679 227 645C227 620 242 604 266 604C297 604 321 633 321 671C321 695 306 712 285 712Z" stroke="rgb(0,0,0)" stroke-opacity="1" stroke-width="0" fill="rgb(0,0,0)" fill-opacity="1"></path></g></g></g></g></g></g></g></g></g></g><g><g><g><g><g><g><g transform="matrix(1,0,0,1,543.683349609375,157.28336181640626)"><path transform="matrix(0.020399999999999998,0,0,-0.020399999999999998,0,0)" d="M368 365C371 403 376 435 384 476C373 481 369 482 364 482C333 482 302 458 266 407C227 351 188 291 172 256L204 408C208 425 210 438 210 450C210 470 202 482 187 482C166 482 128 461 54 408L26 388L33 368L65 389C93 407 104 412 113 412C123 412 130 403 130 390C130 332 87 126 47 -2L57 -9C72 -4 88 -1 111 4L124 6L150 126C168 209 191 262 235 319C269 363 296 384 318 384C333 384 343 379 354 365Z" stroke="rgb(0,0,0)" stroke-opacity="1" stroke-width="0" fill="rgb(0,0,0)" fill-opacity="1"></path></g></g><g><g><g><g><g transform="matrix(1,0,0,1,552.2166748046875,160.64669921875)"><path transform="matrix(0.01428,0,0,-0.01428,0,0)" d="M194 351L94 -144C83 -196 65 -231 47 -231C33 -231 15 -225 -6 -212L-14 -269C-4 -274 9 -276 24 -276C64 -276 104 -233 140 -152C160 -107 174 -57 202 70L278 420C282 438 284 451 284 457C284 473 275 482 259 482C237 482 200 461 125 408L97 388L104 368L136 389C173 412 176 414 183 414C193 414 201 404 201 391C201 382 194 356 194 351ZM285 712C256 712 227 679 227 645C227 620 242 604 266 604C297 604 321 633 321 671C321 695 306 712 285 712Z" stroke="rgb(0,0,0)" stroke-opacity="1" stroke-width="0" fill="rgb(0,0,0)" fill-opacity="1"></path></g></g></g></g></g></g></g></g></g></g><g><g><g><g><g><g><g transform="matrix(1,0,0,1,531.566650390625,196.58003662109374)"><path transform="matrix(0.024480000000000002,0,0,-0.024480000000000002,0,0)" d="M604 241L604 300L364 300L364 538L305 538L305 300L65 300L65 241L305 241L305 0L364 0L364 241ZM1272 241L1272 300L1032 300L1032 538L973 538L973 300L733 300L733 241L973 241L973 0L1032 0L1032 241Z" stroke="rgb(0,0,0)" stroke-opacity="1" stroke-width="0" fill="rgb(0,0,0)" fill-opacity="1"></path></g></g></g></g></g></g></g><g><g><g><g><g><g><g transform="matrix(1,0,0,1,569.300048828125,134.98)"><path transform="matrix(0.024480000000000002,0,0,-0.024480000000000002,0,0)" d="M555 243L555 299L51 299L51 243Z" stroke="rgb(0,0,0)" stroke-opacity="1" stroke-width="0" fill="rgb(0,0,0)" fill-opacity="1"></path></g></g></g></g></g></g></g><g><g><g><g><g><g><g transform="matrix(1,0,0,1,355.316650390625,80.78336181640626)"><path transform="matrix(0.020399999999999998,0,0,-0.020399999999999998,0,0)" d="M368 365C371 403 376 435 384 476C373 481 369 482 364 482C333 482 302 458 266 407C227 351 188 291 172 256L204 408C208 425 210 438 210 450C210 470 202 482 187 482C166 482 128 461 54 408L26 388L33 368L65 389C93 407 104 412 113 412C123 412 130 403 130 390C130 332 87 126 47 -2L57 -9C72 -4 88 -1 111 4L124 6L150 126C168 209 191 262 235 319C269 363 296 384 318 384C333 384 343 379 354 365Z" stroke="rgb(0,0,0)" stroke-opacity="1" stroke-width="0" fill="rgb(0,0,0)" fill-opacity="1"></path></g></g><g><g><g><g><g transform="matrix(1,0,0,1,363.8499755859375,84.14669921875)"><path transform="matrix(0.01428,0,0,-0.01428,0,0)" d="M34 388L41 368L73 389C110 412 113 414 120 414C130 414 138 404 138 391C138 384 134 361 130 347L64 107C56 76 51 49 51 30C51 6 62 -9 81 -9C107 -9 143 12 241 85L231 103L205 86C176 67 153 56 144 56C137 56 131 66 131 76C131 86 133 95 138 116L215 420C219 437 221 448 221 456C221 473 212 482 196 482C174 482 137 461 62 408ZM228 712C199 712 170 679 170 645C170 620 185 604 209 604C240 604 264 633 264 671C264 695 249 712 228 712Z" stroke="rgb(0,0,0)" stroke-opacity="1" stroke-width="0" fill="rgb(0,0,0)" fill-opacity="1"></path></g></g></g></g></g></g></g></g></g></g><g><g><g><g><g><g><g transform="matrix(1,0,0,1,317.3499755859375,108.73)"><path transform="matrix(0.024480000000000002,0,0,-0.024480000000000002,0,0)" d="M604 241L604 300L364 300L364 538L305 538L305 300L65 300L65 241L305 241L305 0L364 0L364 241ZM1272 241L1272 300L1032 300L1032 538L973 538L973 300L733 300L733 241L973 241L973 0L1032 0L1032 241Z" stroke="rgb(0,0,0)" stroke-opacity="1" stroke-width="0" fill="rgb(0,0,0)" fill-opacity="1"></path></g></g></g></g></g></g></g><g><g><g><g><g><g><g transform="matrix(1,0,0,1,388.11669921875,84.09669921875)"><path transform="matrix(0.024480000000000002,0,0,-0.024480000000000002,0,0)" d="M555 243L555 299L51 299L51 243Z" stroke="rgb(0,0,0)" stroke-opacity="1" stroke-width="0" fill="rgb(0,0,0)" fill-opacity="1"></path></g></g></g></g></g></g></g></svg>
</svg>
